<?xml version="1.0" encoding="utf-8"?>
<!-- Generator: Adobe Illustrator 16.0.0, SVG Export Plug-In . SVG Version: 6.00 Build 0)  -->
<!DOCTYPE svg PUBLIC "-//W3C//DTD SVG 1.1//EN" "http://www.w3.org/Graphics/SVG/1.1/DTD/svg11.dtd">
<svg version="1.1" xmlns="http://www.w3.org/2000/svg" xmlns:xlink="http://www.w3.org/1999/xlink" x="0px" y="0px"
	 width="345.834px" height="89.333px" viewBox="0 0 345.834 89.333" enable-background="new 0 0 345.834 89.333"
	 xml:space="preserve">
<g id="Layer_3">
	<path fill="none" stroke="#231F20" stroke-miterlimit="10" d="M0.167,51.667c20.6,0,77.582-49,98-49
		c18.333,0-3.333,52.667,25,52.667S187.5,1.667,216.833,1.667c31.898,0,7.312,37.667,37.666,37.667
		c28,0,27.001-14.667,50.334-14.667s16.334,27,41,27"/>
	<path fill="none" stroke="#231F20" stroke-miterlimit="10" d="M0.167,60c20.6,0,77.582-49,98-49c18.333,0-3.333,52.667,25,52.667
		S187.5,10,216.833,10c31.898,0,7.312,37.667,37.666,37.667c28,0,27.001-14.667,50.334-14.667s16.334,27,41,27"/>
	<path fill="none" stroke="#231F20" stroke-miterlimit="10" d="M0.167,68.333c20.6,0,77.582-49,98-49
		c18.333,0-3.333,52.667,25,52.667s64.334-53.667,93.667-53.667c31.898,0,7.312,37.667,37.666,37.667
		c28,0,27.001-14.667,50.334-14.667s16.334,27,41,27"/>
	<path fill="none" stroke="#231F20" stroke-miterlimit="10" d="M0.167,76.666c20.6,0,77.582-49,98-49
		c18.333,0-3.333,52.667,25,52.667s64.334-53.667,93.667-53.667c31.898,0,7.312,37.667,37.666,37.667
		c28,0,27.001-14.667,50.334-14.667s16.334,27,41,27"/>
	<path fill="none" stroke="#231F20" stroke-miterlimit="10" d="M0.167,84.999c20.6,0,77.582-49,98-49
		c18.333,0-3.333,52.667,25,52.667s64.334-53.667,93.667-53.667c31.898,0,7.312,37.667,37.666,37.667
		c28,0,27.001-14.666,50.334-14.666s16.334,27,41,27"/>
	<line fill="none" stroke="#231F20" stroke-miterlimit="10" x1="149.417" y1="44.833" x2="148.917" y2="78.083"/>
	<line fill="none" stroke="#231F20" stroke-miterlimit="10" x1="301.042" y1="24.458" x2="304.167" y2="58.333"/>
</g>
<g id="Layer_2">
	<line fill="none" stroke="#231F20" stroke-miterlimit="10" x1="0.796" y1="51.596" x2="0.546" y2="85.596"/>
	<line fill="none" stroke="#231F20" stroke-miterlimit="10" x1="4.375" y1="51.054" x2="4.125" y2="85.054"/>
	<ellipse fill="#231F20" cx="7.542" cy="62.876" rx="1.375" ry="2"/>
	<ellipse fill="#231F20" cx="7.542" cy="70.882" rx="1.375" ry="2"/>
	<g>
		
			<ellipse transform="matrix(0.8291 -0.559 0.559 0.8291 -30.8201 31.7807)" fill="#231F20" cx="36.583" cy="66.312" rx="6" ry="4.562"/>
		<line fill="none" stroke="#231F20" stroke-miterlimit="10" x1="40.891" y1="63.041" x2="28.25" y2="31.75"/>
		<path fill="#231F20" d="M27.75,31.666C42,30.916,44.167,37.5,39.417,46.833C41.417,35.166,34.75,36,29,33.25L27.75,31.666z"/>
	</g>
	<path fill="#231F20" d="M62,44.673C61.999,44.673,62,44.673,62,44.673c-1.719,0-3.176-0.701-4-1.923
		c-0.771-1.143-0.915-2.598-0.405-4.097c0.493-1.452,1.545-2.777,2.964-3.733c1.299-0.876,2.798-1.358,4.22-1.358
		c1.718,0,3.176,0.701,3.999,1.922c1.56,2.314,0.412,5.827-2.559,7.832C64.92,44.19,63.421,44.673,62,44.673z M65.961,35.872
		c-0.992-0.389-2.178-0.46-3.34-0.201c-1.268,0.283-2.372,0.919-3.11,1.793c-0.708,0.839-0.987,1.797-0.788,2.694
		c0.214,0.963,0.979,1.768,2.095,2.205c0,0.001,0,0.001,0,0.001c0.992,0.389,2.177,0.459,3.34,0.2
		c2.572-0.574,4.321-2.588,3.897-4.488C67.841,37.113,67.077,36.31,65.961,35.872z"/>
	<g>
		
			<ellipse transform="matrix(-0.988 0.1544 -0.1544 -0.988 192.5147 15.2165)" fill="#231F20" cx="95.667" cy="15.083" rx="6" ry="4.562"/>
		<line fill="none" stroke="#231F20" stroke-miterlimit="10" x1="90.377" y1="16.217" x2="88.545" y2="49.915"/>
		<path fill="#231F20" d="M88.963,50.204c-13.222-5.368-12.391-12.249-4.129-18.685c-6.762,9.715-0.371,11.789,3.668,16.719
			L88.963,50.204z"/>
	</g>
	<g>
		
			<ellipse transform="matrix(0.9817 -0.1904 0.1904 0.9817 -13.2262 25.0405)" fill="#231F20" cx="123.667" cy="81.333" rx="5.999" ry="4.562"/>
		<line fill="none" stroke="#231F20" stroke-miterlimit="10" x1="128.911" y1="80.005" x2="129.504" y2="46.263"/>
		<path fill="#231F20" d="M129.077,45.99c13.409,4.878,12.831,11.786,4.81,18.52c6.401-9.957-0.061-11.795-4.278-16.573
			L129.077,45.99z"/>
	</g>
	<g>
		
			<ellipse transform="matrix(-0.9817 0.1904 -0.1904 -0.9817 441.7303 -31.7367)" fill="#231F20" cx="222.39" cy="5.357" rx="5.999" ry="4.562"/>
		<line fill="none" stroke="#231F20" stroke-miterlimit="10" x1="217.146" y1="6.686" x2="216.552" y2="40.428"/>
		<path fill="#231F20" d="M216.979,40.7c-13.408-4.878-12.83-11.786-4.81-18.52c-6.401,9.957,0.061,11.795,4.278,16.573
			L216.979,40.7z"/>
	</g>
	<g>
		
			<ellipse transform="matrix(-0.9694 0.2453 -0.2453 -0.9694 343.5226 37.8773)" fill="#231F20" cx="169.402" cy="40.333" rx="5.999" ry="4.562"/>
		<line fill="none" stroke="#231F20" stroke-miterlimit="10" x1="164.242" y1="41.954" x2="165.545" y2="75.676"/>
		
			<ellipse transform="matrix(-0.9694 0.2453 -0.2453 -0.9694 373.5901 22.1369)" fill="#231F20" cx="185.417" cy="34.333" rx="6" ry="4.562"/>
		<line fill="none" stroke="#231F20" stroke-miterlimit="10" x1="180.256" y1="35.955" x2="181.559" y2="69.677"/>
		<polygon fill="#231F20" points="181.48,66.315 165.438,72.405 165.563,75.655 181.605,69.565 		"/>
	</g>
	<g>
		<path fill="#231F20" d="M290.997,60.862c-0.617-2.442-3.722-3.766-6.936-2.951c-3.211,0.811-5.314,3.452-4.696,5.895
			c0.617,2.443,3.724,3.763,6.936,2.953C289.512,65.943,291.615,63.304,290.997,60.862z"/>
		<line fill="none" stroke="#231F20" stroke-miterlimit="10" x1="290.341" y1="60.712" x2="289.038" y2="26.991"/>
		<path fill="#231F20" d="M274.983,66.861c-0.617-2.442-3.723-3.766-6.936-2.95c-3.211,0.81-5.314,3.451-4.697,5.894
			c0.617,2.444,3.725,3.763,6.936,2.953C273.499,71.942,275.6,69.303,274.983,66.861z"/>
		<line fill="none" stroke="#231F20" stroke-miterlimit="10" x1="274.327" y1="66.712" x2="273.024" y2="32.989"/>
		<polygon fill="#231F20" points="273.103,36.351 289.145,30.261 289.02,27.011 272.978,33.101 		"/>
	</g>
	<g>
		<path fill="#231F20" d="M204.042,25.833c-2.5-2.5-3.375-4.625-2.875-7.625l-7.625-2.625c2.5,2.5,3.375,4.625,2.875,7.625
			L204.042,25.833z"/>
		<path fill="#231F20" d="M204.042,25.833c-4.342-0.229-5.369,6.748-1.25,10C200.683,34.168,191.179,25.156,204.042,25.833z"/>
	</g>
	<g>
		<path fill="#231F20" stroke="#231F20" stroke-miterlimit="10" d="M259.5,41c-8.624,6.901-10.443,1.62-13.333,1.5
			c-4-0.167-3.333,5.5-0.833,5.833C250.338,49,257.028,43.231,259.5,41z"/>
		<line fill="#231F20" stroke="#231F20" stroke-miterlimit="10" x1="260" y1="41" x2="246" y2="71.166"/>
	</g>
	<polygon fill="#231F20" points="325.411,55.889 320.575,48.882 322.506,46.266 327.342,53.271 	"/>
</g>
</svg>
