<?xml version="1.0" encoding="utf-8"?>
<!-- Generator: Adobe Illustrator 16.0.0, SVG Export Plug-In . SVG Version: 6.00 Build 0)  -->
<!DOCTYPE svg PUBLIC "-//W3C//DTD SVG 1.1//EN" "http://www.w3.org/Graphics/SVG/1.1/DTD/svg11.dtd">
<svg version="1.1" id="Layer_1" xmlns="http://www.w3.org/2000/svg" xmlns:xlink="http://www.w3.org/1999/xlink" x="0px" y="0px"
	 width="376.5px" height="89.333px" viewBox="-15.333 0 376.5 89.333" enable-background="new -15.333 0 376.5 89.333"
	 xml:space="preserve">
<g id="Layer_3" display="none">
	<path display="inline" fill="none" stroke="#231F20" stroke-width="1.0417" stroke-miterlimit="10" d="M-15.333,51.667
		c22.353,0,84.182-49,106.337-49c19.893,0-3.616,52.667,27.127,52.667S187.938,1.667,219.766,1.667
		c34.612,0,7.935,37.667,40.87,37.667c30.383,0,29.299-14.667,54.616-14.667c25.318,0,17.724,27,44.488,27"/>
	<path display="inline" fill="none" stroke="#231F20" stroke-width="1.0417" stroke-miterlimit="10" d="M-15.333,60
		C7.02,60,68.849,11,91.004,11c19.893,0-3.616,52.667,27.127,52.667S187.938,10,219.766,10c34.612,0,7.935,37.667,40.87,37.667
		c30.383,0,29.299-14.667,54.616-14.667c25.318,0,17.724,27,44.488,27"/>
	<path display="inline" fill="none" stroke="#231F20" stroke-width="1.0417" stroke-miterlimit="10" d="M-15.333,68.333
		c22.353,0,84.182-49,106.337-49c19.893,0-3.616,52.667,27.127,52.667s69.808-53.667,101.636-53.667
		c34.611,0,7.934,37.667,40.87,37.667c30.383,0,29.299-14.667,54.616-14.667c25.318,0,17.724,27,44.488,27"/>
	<path display="inline" fill="none" stroke="#231F20" stroke-width="1.0417" stroke-miterlimit="10" d="M-15.333,76.667
		c22.353,0,84.182-49,106.337-49c19.893,0-3.616,52.667,27.127,52.667s69.808-53.667,101.636-53.667
		c34.611,0,7.934,37.667,40.87,37.667c30.383,0,29.299-14.666,54.616-14.666c25.318,0,17.724,27,44.488,27"/>
	<path display="inline" fill="none" stroke="#231F20" stroke-width="1.0417" stroke-miterlimit="10" d="M-15.333,84.999
		c22.353,0,84.182-49,106.337-49c19.893,0-3.616,52.667,27.127,52.667s69.808-53.667,101.636-53.667
		c34.611,0,7.934,37.667,40.87,37.667C291.02,72.667,289.936,58,315.253,58c25.318,0,17.724,27,44.488,27"/>
	
		<line display="inline" fill="none" stroke="#231F20" stroke-width="1.0417" stroke-miterlimit="10" x1="146.614" y1="44.833" x2="146.071" y2="78.083"/>
	
		<line display="inline" fill="none" stroke="#231F20" stroke-width="1.0417" stroke-miterlimit="10" x1="311.139" y1="24.458" x2="314.529" y2="58.333"/>
	
		<line display="inline" fill="none" stroke="#231F20" stroke-width="1.0417" stroke-miterlimit="10" x1="-14.651" y1="51.596" x2="-14.922" y2="85.596"/>
	
		<line display="inline" fill="none" stroke="#231F20" stroke-width="1.0417" stroke-miterlimit="10" x1="-10.768" y1="51.054" x2="-11.039" y2="85.054"/>
	<ellipse display="inline" fill="#231F20" cx="-7.331" cy="62.875" rx="1.492" ry="2"/>
	<ellipse display="inline" fill="#231F20" cx="-7.331" cy="70.881" rx="1.492" ry="2"/>
</g>
<g id="Layer_2">
	<g>
		<path fill="#231F20" d="M21.41,62.528c2.98-1.853,6.636-1.66,8.164,0.428c1.528,2.09,0.351,5.285-2.631,7.137
			c-2.98,1.853-6.636,1.66-8.165-0.428C17.251,67.575,18.429,64.379,21.41,62.528z"/>
		
			<line fill="none" stroke="#231F20" stroke-width="1.0417" stroke-miterlimit="10" x1="28.855" y1="63.042" x2="15.139" y2="31.75"/>
		<path fill="#231F20" d="M14.597,31.666c15.462-0.75,17.813,5.834,12.659,15.167C29.426,35.166,22.191,36,15.952,33.25
			L14.597,31.666z"/>
	</g>
	<path fill="#231F20" d="M51.76,44.673C51.759,44.673,51.76,44.673,51.76,44.673c-1.864,0-3.445-0.701-4.34-1.923
		c-0.837-1.143-0.993-2.598-0.439-4.097c0.534-1.452,1.677-2.777,3.216-3.733c1.409-0.876,3.036-1.358,4.579-1.358
		c1.864,0,3.446,0.701,4.339,1.922c1.693,2.314,0.447,5.827-2.776,7.832C54.929,44.19,53.302,44.673,51.76,44.673z M56.058,35.872
		c-1.076-0.389-2.362-0.46-3.624-0.201c-1.376,0.283-2.573,0.919-3.374,1.793c-0.769,0.839-1.071,1.797-0.855,2.694
		c0.232,0.963,1.062,1.768,2.273,2.205c0,0.001,0,0.001,0,0.001c1.076,0.389,2.362,0.459,3.624,0.2
		c2.791-0.574,4.688-2.588,4.229-4.488C58.098,37.113,57.27,36.31,56.058,35.872z"/>
	<g>
		<path fill="#231F20" d="M89.056,19.593c-3.553,0.512-6.774-1.092-7.197-3.581c-0.422-2.489,2.116-4.922,5.668-5.434
			c3.553-0.512,6.775,1.092,7.197,3.581S92.607,19.081,89.056,19.593z"/>
		
			<line fill="none" stroke="#231F20" stroke-width="1.0417" stroke-miterlimit="10" x1="82.551" y1="16.217" x2="80.563" y2="49.915"/>
		<path fill="#231F20" d="M81.017,50.204c-14.347-5.368-13.445-12.249-4.479-18.685c-7.338,9.715-0.403,11.789,3.979,16.719
			L81.017,50.204z"/>
	</g>
	<g>
		<path fill="#231F20" d="M117.728,76.86c3.528-0.631,6.812,0.863,7.332,3.337c0.521,2.474-1.918,4.989-5.447,5.62
			s-6.812-0.862-7.333-3.336C111.759,80.008,114.198,77.491,117.728,76.86z"/>
		
			<line fill="none" stroke="#231F20" stroke-width="1.0417" stroke-miterlimit="10" x1="124.363" y1="80.004" x2="125.007" y2="46.263"/>
		<path fill="#231F20" d="M124.544,45.991c14.55,4.877,13.923,11.785,5.219,18.52c6.946-9.957-0.065-11.795-4.642-16.573
			L124.544,45.991z"/>
	</g>
	<g>
		<path fill="#231F20" d="M226.738,9.826c-3.529,0.631-6.812-0.863-7.333-3.336c-0.521-2.474,1.918-4.99,5.447-5.621
			c3.53-0.631,6.812,0.863,7.333,3.336C232.706,6.679,230.267,9.195,226.738,9.826z"/>
		
			<line fill="none" stroke="#231F20" stroke-width="1.0417" stroke-miterlimit="10" x1="220.104" y1="6.686" x2="219.46" y2="40.428"/>
		<path fill="#231F20" d="M219.925,40.7c-14.549-4.878-13.922-11.786-5.22-18.52c-6.945,9.957,0.065,11.795,4.641,16.573
			L219.925,40.7z"/>
	</g>
	<g>
		<path fill="#231F20" d="M169.523,44.755c-3.485,0.812-6.854-0.509-7.524-2.951c-0.671-2.442,1.61-5.081,5.096-5.894
			c3.484-0.812,6.854,0.509,7.523,2.951C175.29,41.304,173.008,43.942,169.523,44.755z"/>
		
			<line fill="none" stroke="#231F20" stroke-width="1.0417" stroke-miterlimit="10" x1="162.7" y1="41.954" x2="164.114" y2="75.676"/>
		<path fill="#231F20" d="M186.899,38.76c-3.486,0.813-6.854-0.508-7.525-2.951c-0.67-2.442,1.611-5.082,5.097-5.894
			c3.486-0.813,6.856,0.508,7.525,2.95C192.667,35.308,190.386,37.947,186.899,38.76z"/>
		
			<line fill="none" stroke="#231F20" stroke-width="1.0417" stroke-miterlimit="10" x1="180.076" y1="35.955" x2="181.491" y2="69.676"/>
		<polygon fill="#231F20" points="181.404,66.315 163.998,72.405 164.134,75.655 181.54,69.565 		"/>
	</g>
	<g>
		<path fill="#231F20" d="M300.239,60.862c-0.67-2.441-4.039-3.766-7.525-2.951c-3.484,0.812-5.767,3.452-5.096,5.896
			c0.668,2.442,4.04,3.763,7.525,2.952C298.629,65.943,300.91,63.304,300.239,60.862z"/>
		
			<line fill="none" stroke="#231F20" stroke-width="1.0417" stroke-miterlimit="10" x1="299.527" y1="60.711" x2="298.113" y2="26.991"/>
		<path fill="#231F20" d="M282.863,66.861c-0.67-2.442-4.04-3.766-7.526-2.95c-3.484,0.811-5.766,3.451-5.097,5.895
			s4.042,3.763,7.526,2.953C281.253,71.942,283.533,69.303,282.863,66.861z"/>
		
			<line fill="none" stroke="#231F20" stroke-width="1.0417" stroke-miterlimit="10" x1="282.151" y1="66.711" x2="280.737" y2="32.989"/>
		<polygon fill="#231F20" points="280.822,36.351 298.23,30.261 298.095,27.011 280.687,33.101 		"/>
	</g>
	<g>
		<path fill="#231F20" d="M205.887,25.833c-2.713-2.5-3.662-4.625-3.12-7.625l-8.273-2.625c2.713,2.5,3.662,4.625,3.119,7.625
			L205.887,25.833z"/>
		<path fill="#231F20" d="M205.887,25.833c-4.712-0.229-5.826,6.748-1.356,10C202.241,34.168,191.929,25.156,205.887,25.833z"/>
	</g>
	<g>
		<path fill="#231F20" stroke="#231F20" stroke-width="1.0417" stroke-miterlimit="10" d="M266.062,41
			c-9.357,6.901-11.331,1.62-14.468,1.5c-4.34-0.167-3.616,5.5-0.903,5.833C256.121,49,263.381,43.231,266.062,41z"/>
		
			<line fill="none" stroke="#231F20" stroke-width="1.0417" stroke-miterlimit="10" x1="266.605" y1="41" x2="251.414" y2="71.167"/>
	</g>
	<polygon fill="#231F20" points="337.581,55.889 332.334,48.881 334.429,46.266 339.676,53.271 	"/>
</g>
</svg>
