<?xml version="1.0" encoding="utf-8"?>
<!-- Generator: Adobe Illustrator 16.0.0, SVG Export Plug-In . SVG Version: 6.00 Build 0)  -->
<!DOCTYPE svg PUBLIC "-//W3C//DTD SVG 1.1//EN" "http://www.w3.org/Graphics/SVG/1.1/DTD/svg11.dtd">
<svg version="1.1" id="Layer_1" xmlns="http://www.w3.org/2000/svg" xmlns:xlink="http://www.w3.org/1999/xlink" x="0px" y="0px"
	 width="376.5px" height="74px" viewBox="0 0 376.5 74" enable-background="new 0 0 376.5 74" xml:space="preserve">
<g>
	<circle fill="#08090E" cx="0.089" cy="37.502" r="2.013"/>
	<circle fill="#08090E" cx="75.388" cy="37.502" r="2.013"/>
	<circle fill="#08090E" cx="99.037" cy="37.502" r="2.013"/>
	<circle fill="#08090E" cx="16.303" cy="30.029" r="2.013"/>
	<g>
		<path fill="#08090E" d="M2.573,36.503c0.271,0.422,0.242,1.432-0.06,1.908c-1,1.575-0.521,2.653,0,3.271
			c0.717,0.85,1.704,0.188,2.514,0.666c1.433,0.846,1.145,1.773,0.969,2.241c-0.182,0.484,0.121,0.666,0.728,0.363
			c1.981-0.991,2.177-3.774,0.182-5.604c-0.364-0.333-1.363-0.272-1.363-1.06c0-0.788,0.787-1.091,1.727-1.03
			c4.624,0.299,4.624-4.044,3.816-5.301c-0.273-0.424-0.606-0.424-0.728,0.061s-0.424,1.878-1.786,1.878
			c-1.363,0-2.696-0.484-3.786-1.06c-1.091-0.575-2.333-0.061-2.787,0.878C1.543,34.655,2.088,35.745,2.573,36.503z"/>
		<path fill="#08090E" d="M78.781,35.039c-0.768,0-1.172,0.565-1.172,1.009c0,0.444,0.766,0.646,0.766,1.454
			c0,0.809-0.604,0.727-0.604,1.414c0,0.687,0.404,0.768,0.889,0.768s1.613-0.646,1.613-2.182
			C80.273,35.968,79.628,35.039,78.781,35.039z"/>
		<path fill="#08090E" d="M151.07,35.039c0.768,0,1.172,0.565,1.172,1.009c0,0.444-0.766,0.646-0.766,1.454
			c0,0.809,0.604,0.727,0.604,1.414c0,0.687-0.404,0.768-0.889,0.768s-1.613-0.646-1.613-2.182
			C149.578,35.968,150.222,35.039,151.07,35.039z"/>
	</g>
	<g>
		<path fill="#98928F" d="M6.712,37.946c-0.447-0.105-0.565,0.323-0.121,0.444c5.425,1.479,7.381,6.073,6.865,11.227
			c-0.04,0.404-0.605,0.93-1.05,0.202c-0.444-0.727-1.979-1.494-3.352-0.403c-1.373,1.09-1.736,2.665-1.575,4.442
			c0.207,2.272-0.441,2.964-1.857,2.746c-0.525-0.081-0.769,0.323-0.404,0.848c2.048,2.957,5.081,1.654,5.332,0.404
			c0.08-0.404,0.767-0.808,0.807-0.081c0.04,0.728,0.727,2.424,1.413,3.393s1.092,1.615,1.212,1.938
			c0.121,0.323,0.323,0.363,0.525-0.161c0.201-0.525,1.009-2.303,1.494-3.029c0.694-1.042,1.096-2.148,0.687-3.069
			c-0.161-0.363,0.322-1.091,0.646-0.242c0.755,1.979,3.461,4.645,5.533,4.645c3.151,0,4.778-3.029,3.353-5.089
			c-0.364-0.525-0.606-0.444-0.849-0.081s-0.929,0.97-2.222,0.97c-1.291,0-3.661-0.711-5.249-4.766
			C15.194,45.377,13.488,39.548,6.712,37.946z"/>
		<path fill="#98928F" d="M17.172,59.027c-0.104-0.598,0.353-0.585,0.525-0.04c2.17,6.838-3.152,14.014-8.562,14.014
			c-4.772,0-7.289-5.116-5.493-7.512c0.243-0.323,0.809-0.041,0.688,0.605c-0.442,2.356,1.687,3.918,3.513,3.918
			c0.363,0,0.687-0.122,0.404-0.809c-0.495-1.202,0.663-3.495,2.504-3.312c0.403,0.041,0.848,0.364,0.565,1.01
			c-0.283,0.646,0.363,1.373,1.413,1.373C16.298,68.275,18.114,64.419,17.172,59.027z"/>
		<path fill="#98928F" d="M24.765,67.023c-3.042-1.412-6.479-5.643-7.27-8.278c-0.121-0.404,0.242-0.688,0.605,0
			c1.486,2.807,5.124,7.955,11.389,7.955c3.441,0,5.242-0.445,6.543-2.948c1.615-3.109,4.199-3.969,5.048-2.907
			c0.161,0.202,0.323,0.484-0.201,0.484c-0.526,0-1.576,0.404-1.576,1.333c0,1.454,1.03,1.979,2.343,1.979
			c0.618,0,1.865-1.427,1.091-2.423c-0.283-0.363,0.282-0.404,0.687-0.04c0.403,0.363,0.928,1.413,0.928,2.463
			c0,3.604-9.779,4.602-12.316,3.756c-0.485-0.161-0.687,0.283-0.041,0.444c6.564,1.642,15.546,1.441,22.131-2.948
			c0.243-0.161,0.687-0.484-0.282-0.768c-3.043-0.887-1.992-5.237,1.373-6.098c1.527-0.391,4.24-0.182,4.24-2.463
			c0-0.93-1.252-1.454-1.736-1.454s-0.565-0.485,0.242-0.646c2.727-0.545,4.745,2.483,4.038,4.604
			c-0.161,0.485,0.121,0.909,0.788,0.425c4.624-3.363,6.362-9.197,6.362-16.175c0-9.895-6.665-18.536-12.602-18.536
			c-2.819,0-3.239,2.544-1.737,3.796c0.243,0.202,0.444,0.565-0.282,0.808c-1.622,0.541-4.401-0.446-4.401-3.069
			c0-2.955,4.482-3.998,6.219-3.514c0.311,0.087,0.247-0.293,0.308-0.459c0.062-0.167,0.267-0.243,0.788,0.075
			c7.133,4.361,11.343,8.996,12.554,18.688c0.076,0.607,0.334,0.757,0.547,0.121c0.762-2.284,2.084-2.813,3.119-2.09
			c0.303,0.212,0.523,0.652,0,0.879c-0.908,0.394-2.393,2.12-2.877,3.906c-0.484,1.788-0.676,2.526-0.91,4.393
			c-0.418,3.353-1.893,8.278-5.996,11.419c-0.478,0.365-0.152,0.666,0.545,0.454c0.696-0.212,3.574-0.727,6.088,0.728
			c3.807,2.2,5.209,3.866,5.209,7.359c0,5.412-7.451,6.815-10.177,3.786c-0.545-0.605-0.272-0.938,0.454-0.969
			c0.728-0.03,3.303-0.213,3.303-3.241c0-3.029-3.362-3.968-6.906-3.968s-7.814,2.696-7.814,4.513c0,1.817,1.604,1.545,2.302,1.363
			s0.757,0.212,0.151,0.817c-0.605,0.606-5.543,2.848-7.33,2.302c-1.199-0.365-1.688-1.319-1.908-2.089
			c-0.121-0.425-0.272-0.667-0.878-0.485c-0.606,0.182-6.785,0.575-7.542,0.545c-0.758-0.03-0.879,0.213-0.273,0.485
			c1.808,0.812,2.363,2.802,1,4.119c-0.908,0.879-1.003-0.218-1.091-0.787c-0.242-1.575-1.574-2.817-3.392-3.574
			c-1.817-0.758-3.12-1.182-3.574-1.272s-0.666,0.091-0.151,0.545c1.027,0.907,1.938,3.393-0.818,4.089
			c-0.715,0.181-1.12-0.06-0.848-0.696c0.272-0.636,0.03-1.999-1.515-1.999c-2.483,0-2.393,1.151-4.301,1.151
			c-0.938,0-2.423-0.737-2.423-2.241c0-1.949,1.838-2.888,2.756-3.029C25.138,67.579,25.331,67.286,24.765,67.023z"/>
		<path fill="#98928F" d="M70.138,35.442c0.021,0.691,0.568,0.765,0.646,0c0.16-1.575-0.203-4.281-0.324-4.725
			c-0.121-0.444,0.121-0.728,0.768-0.728s2.545-0.646,2.545-2.625c0-1.751-0.674-2.4-1.453-2.584
			c-0.688-0.162-1.211-0.758-0.688-1.414c0.643-0.802,0.096-2.986-2.061-3.109c-2.826-0.161-2.778-2.502-0.848-3.029
			c0.445-0.121,0.605-0.767-0.121-0.767c-1.272,0-3.675,1.393-3.675,4.967c0,2.383,1.776,4.887,2.948,6.825
			C69.048,30.192,70.058,32.898,70.138,35.442z"/>
		<path fill="#98928F" d="M92.107,19.692c0-1.777-0.766-3.15-2.785-3.474c-2.02-0.322-4.363-0.807-4.16-4.159
			c0.201-3.352,1.293-4.119,1.857-3.958c0.566,0.162,1.051,0.283,1.131,0.484c0.08,0.202,0.363,0.081,0.283-0.646
			c-0.295-2.646,3.242-6.543,7.996-6.543c4.072,0,7.148,3.474,7.148,6.745c0,2.948-1.615,4.563-3.232,4.563
			c-1.615,0-2.504-1.535-2.504-2.424c0-2.751,3.123-2.538,3.838-0.969c0.201,0.444,0.457,0.638,0.564,0
			c0.525-3.069-1.881-5.412-4.725-5.412c-2.666,0-4.846,2.222-4.846,5.533c0,5.937,5.129,9.046,5.129,16.599
			c0,8.597-7.592,13.488-16.236,11.348c-0.393-0.098-0.482-0.605,0.203-0.444c5.52,1.299,12.561-1.09,12.561-6.3
			c0-2.585-1.494-4.563-3.877-4.563c-1.545,0-2.211,1.191-2.262,1.898c-0.041,0.565-0.203,1.13-1.092,1.13
			c-2.629,0-3.359-3.075-2.543-4.24c0.283-0.403,0.08-0.808-0.525-0.524c-3.791,1.77-3.393,5.734-0.041,7.31
			c0.508,0.238,0.646,0.889-0.363,0.687c-3.068-0.614-4.686-3.876-4.686-5.978c0-2.848,1.508-4.784,2.545-5.613
			c0.404-0.323,0.445-0.727,0.162-1.05s-1.252-0.97-0.848-1.575s1.938-1.252,3.029-1.252c1.09,0,2.383,1.535,3.148,2.989
			c0.768,1.453,1.818,2.019,3.07,2.019S92.107,20.863,92.107,19.692z"/>
		<path fill="#98928F" d="M88.224,42.21c0.457,0.62,2.188,2.966,2.188,5.065c0,1.813-1.643,4.009-3.756,3.877
			c-0.646-0.04-0.775-0.666-0.121-0.808c3.352-0.728,2.869-4.968-1.736-4.968c-2.275,0-4.119-0.666-4.119-2.705
			c0-1.08,1.277-2.582,2.422-2.827c0.566-0.121,0.646-0.404,0.244-0.565c-0.406-0.162-1.576-0.444-2.223-0.525
			c-0.645-0.08-0.369-0.767,0.121-0.767C83.667,37.987,86.283,39.583,88.224,42.21z"/>
		<path fill="#98928F" d="M88.373,41.863c-0.404-0.322-0.318-1.166,0.408-0.52c2.387,2.122,4.906,4.565,6.922,6.981
			c3.898,4.678,9.381,10.178,17.123,10.178c4.449,0,5.307-4.344,2.666-4.584c-0.668-0.061-0.789-0.546-0.244-1.151
			c2.652-2.945,6.557,0.46,4.969,3.635c-0.184,0.363-0.242,0.849,0.523,0.565c2.057-0.757,3.082-3.193,3.312-5.21
			c0.318-2.769,2.893-6.008,5.129-6.381c0.484-0.081,0.969,0.162,0.283,0.728c-1.742,1.434-1.443,4.28,1.332,4.28
			c4.43,0,5.695-4.577,5.695-8.158c0-3.722-1.555-6.784-4.402-6.784c-1.787,0-3.045,1.541-2.02,3.595
			c0.242,0.484,0.242,0.808-0.605,0.808c-2.797,0-3.867-4.551-1.172-5.775c0.443-0.202,0.566-0.768-0.201-0.687
			s-2.02-0.081-2.545-1.05c-0.523-0.97-0.969-1.696-1.332-1.898c-0.363-0.201-0.242-0.605,0.16-1.01
			c1.135-1.133,3.135-0.859,4.201-0.646c0.404,0.081,1.17-0.162,1.17-1.131c0-1.44-3.6-3.312-7.793-3.312
			c-4.42,0-8.182,2.712-9.127,4.078c-0.365,0.525-0.283,0.889,0.443,0.809c3.125-0.348,4.848,4.846,2.988,7.31
			c-0.361,0.479-0.766,0.524-0.889-0.242c-0.121-0.768-1.332-1.737-2.826-1.737s-3.514,1.252-3.514,4.039
			c0,2.786,3.432,5.573,6.906,5.573c5.27,0,7.229-3.42,7.229-5.614c0-2.313-1.381-4.256-2.342-4.522
			c-0.727-0.202-0.404-0.849,0.283-0.687c1.945,0.457,2.988,3.884,2.988,5.855c0,3.581-4.361,7.027-8.725,7.027
			c-4.441,0-9.611-4.968-9.611-10.581c0-7.893,8.172-12.65,15.387-13.165c0.566-0.041,0.605-0.283-0.039-0.404
			c-0.646-0.121-5.816,0.323-8.482,0.808c-6.104,1.11-11.025,0.263-11.025-3.958c0-2.853,3.877-4.725,5.979-2.342
			c0.342,0.388,0.242,0.727-0.566,0.808c-0.807,0.081-1.736,0.484-1.736,1.615c0,2.032,3.393,3.654,10.016,2.544
			c13.604-2.279,22.939,9.227,22.939,18.134c0,6.097-1.963,11.934-6.301,15.548c-1.09,0.908-3.029,2.585-3.635,2.948
			c-0.842,0.506-1.01,0.808-0.484,0.808c0.479,0,3.668,0.936,4.08,4.119c0.16,1.252-0.445,1.01-0.566,0.646
			c-0.518-1.55-2.789-1.048-3.434-0.403c-0.564,0.565-1.736,1.857-3.189,1.857c-1.289,0-2.789-2.221-1.615-3.917
			c0.363-0.525,0.201-0.727-0.283-0.565c-0.484,0.162-2.787,0.727-4.32,0.646c-0.646-0.034-0.768,0.484-0.324,0.727
			c1.805,0.984,3.998,2.967,3.998,6.3c0,1.703-1.42,5.654-7.35,5.654c-5.195,0-5.883-6.846-3.596-8.117
			c0.729-0.404,0.971,0.282,0.648,0.687c-0.84,1.05-0.764,2.686-0.082,3.594c0.363,0.485,0.727,0.323,0.768-0.081
			c0.074-0.749,0.707-1.982,2.1-2.261c0.809-0.162,0.891,0.161,0.85,0.768c-0.162,2.302,4.643,2.907,4.643-0.93
			c0-3.392-3.27-5.048-5.41-5.653c-2.143-0.606-6.059-1.656-6.947-2.101c-0.889-0.443-1.049-0.04-0.688,0.606
			c3.541,6.293-0.598,11.994-4.684,11.994c-1.857,0-3.473-1.252-3.957-2.746c-0.219-0.671,0.564-1.212,0.93-0.444
			c1.338,2.827,7.066,2.119,7.066-2.746c0-2.182-1.414-3.675-3.354-3.675c-1.938,0-2.018,2.06-1.615,2.625
			c0.404,0.564,0.242,0.929-0.281,0.767c-2.033-0.625-3.676-3.178-3.676-5.694c0-2.642,1.904-4.103,3.555-4.2
			c0.686-0.04,0.807-0.242,0.363-0.565c-0.445-0.322-5.17-5.532-6.947-7.834c-1.775-2.302-5.371-5.735-5.936-6.099"/>
		<path fill="#98928F" d="M131.523,16.825c-1.855-5.566,1.418-9.329,3.998-9.329c1.617,0,2.828,1.373,2.908,1.938
			c0.082,0.565,0.242,0.565,0.809,0.161c2.73-1.951,0.803-5.715-1.252-6.058c-0.486-0.081-0.324-0.282,0.242-0.484
			c4.623-1.651,6.865,1.402,6.865,3.029c0,1.009-0.768,2.221-1.373,2.705s-0.969,1.616-0.162,1.777
			c0.809,0.161,1.494,0.808,1.494,1.776c0,0.97-1.131,2.464-2.584,2.464c-1.455,0-2.061-1.09-2.262-1.817
			c-0.201-0.727-0.646-0.404-0.646,0.242c0,0.929,1.549,2.908,3.918,2.908c3.23,0,6.018-3.19,6.018-6.987
			c0-3.675-3.393-8.562-8.926-8.562c-6.805,0-11.268,5.56-11.268,12.116c0,3.393,2.666,8.885,4.039,11.55s3.836,7.714,4.119,8.44
			s0.807,0.565,0.564-0.363s-2.221-5.896-2.867-7.148c-0.348-0.674,0.109-0.793,0.729-0.484c1.211,0.605,3.027-0.202,3.027-1.656
			c0-1.453-1.332-2.706-2.504-3.473c-2.271-1.488-1.361-4.106,0.363-3.675c0.486,0.121,0.971-0.041,0.404-0.565
			c-2.014-1.869-4.549-0.325-5.049,1.171C132.007,16.865,131.726,17.431,131.523,16.825z"/>
		<path fill="#98928F" d="M87.988,39.037c-0.822-0.384-0.727,0.282-0.16,0.484c1.1,0.394,3.453,2.525,5.371,4.442
			c4.078,4.079,8.598,8.495,12.842,7.552c0.363-0.08,0.695-0.687,0.092-1.171c-0.607-0.484-1.092-1.272-0.334-1.999
			c0.758-0.728,1.635-1.908,0.242-3.726s-2.756-1.424-3.24-1.03c-0.484,0.395-0.062,0.909,0.363,1.151
			c0.812,0.465,1.488,3.211-1.818,3.211c-2.24,0-5.875-2.271-7.512-4.18C92.199,41.863,89.654,39.814,87.988,39.037z"/>
	</g>
	<g>
		<path fill="#5F5D5A" d="M21.858,41.581c0.205-0.604,0.686-0.484,0.564,0.162c-0.121,0.646,0,2.18,0.687,3.957
			s1.252,5.896-1.09,6.26c-1.777,0.276-2.929-1.462-3.029-2.665c-0.041-0.484,0.202-0.525,0.646-0.364
			c1.008,0.366,2.454-0.451,2.625-1.655C22.543,45.296,21.251,43.358,21.858,41.581z"/>
		<path fill="#5F5D5A" d="M116.804,10.626c0.473,0.23,0.908,0.061,0.383-0.384c-2.873-2.43-4.129-5.923-2.342-8.602
			c0.498-0.747,0.033-1.858-0.93-1.858c-1.252,0-1.656,1.575-1.656,2.625C112.259,4.753,113.902,9.216,116.804,10.626z"/>
		<path fill="#5F5D5A" d="M148.082,35.24c0.611,0,1.09,0.768,0.121,1.01c-2.383,0.596-3.957,2.057-3.957,3.393
			c0,2.367,2.471,1.995,3.553,1.01c0.445-0.404,1.252,0.242,0.525,0.929c-2.141,2.021-5.25,0.725-5.25-1.494
			C143.074,37.267,145.908,35.24,148.082,35.24z"/>
		<g>
			<path fill="#5F5D5A" d="M131.806,55.998c0.969-0.403,6.219-2.382,9.045-2.423c0.77-0.011,0.729-0.242,0.285-0.443
				c-0.445-0.202-1.051-1.293-1.051-2.101c0-1.853,2.557-3.438,6.018-1.534c2.484,1.365,3.957-0.034,3.957-1.495
				c0-1.679-1.406-2.588-2.705-1.938c-0.646,0.322-0.969-0.162-0.566-0.606c1.838-2.021,4.928,0.346,4.928,2.948
				c0,2.605-1.588,5.572-4.686,5.937c-0.686,0.081-0.848,0.403-0.201,0.646c2.639,0.989,4.846,4.563,4.846,8.683
				c0,3.541-2.57,11.778-14.295,8.037c-3.85-1.229-5.904-0.974-7.473,0.686c-0.686,0.728-1.09,0-0.969-0.565
				c0.805-3.752,3.908-4.513,5.855-3.756c0.727,0.283,0.809-0.201,0.445-0.687c-2.297-3.062,0.465-8.804,4.725-8.804
				c2.988,0,4.24,1.212,4.805,1.938c0.566,0.728,0.041,1.091-0.402,0.728c-2.27-1.856-6.584-1.463-6.584,2.261
				c0,2.442,2.768,1.676,2.867,0.565c0.041-0.443,0.363-0.687,0.809-0.443c2.211,1.206,1.873,5.026-1.574,5.371
				c-0.809,0.08-0.406,0.443,0,0.605c2.51,1.005,5.584,0.907,7.025-0.202c0.525-0.403,0.646-0.889,0.121-0.808
				c-0.67,0.104-2.553-0.837-2.463-2.544c0.041-0.768,0.08-1.575,1.211-1.535c1.131,0.041,3.393-0.403,3.393-3.634
				c0-3.231-4.119-6.099-7.592-6.099c-3.221,0-8.639,2.04-12,3.008C130.669,56.946,131.322,56.726,131.806,55.998z"/>
			<g>
				<path fill="#5F5D5A" d="M23.816,35.281c0.122-0.444,0.808-0.444,0.687,0.161s-0.283,2.1-0.283,2.545
					c0,0.443,0.404,1.009,0.768,0.363c0.363-0.646,1.535-2.303,3.15-2.303c2.92,0,4.432,2.973,3.998,5.573
					c-0.551,3.306-0.822,5.978,1.535,5.978c0.646,0,1.332-0.283,1.696-0.646c0.363-0.363,0.727-0.282,0.564,0.687
					c-0.162,0.97-1.494,2.908-3.109,2.908c-1.616,0-3.231-1.616-3.595-2.06c-0.363-0.444-0.889-0.081-0.483,0.646
					c4.379,7.884,13.45,7.106,17.001,4.847c0.444-0.283,0.398-0.562-0.322-0.646c-5.21-0.605-5.815-8.4-0.606-8.844
					c0.458-0.039,0.889,0.201,0.565,0.848c-0.78,1.562,0.115,3.23,2.383,3.23c3.384,0,4.008-4.508,1.333-5.331
					c-0.525-0.161-0.606-0.646-0.242-1.171c1.008-1.455,3.098-1.425,3.917-0.605c0.243,0.242,1.09,0.444,0.93-0.444
					c-0.25-1.37-1.979-3.181-4.604-2.787c-2.424,0.364-4.483,0.809-5.089-0.161c-0.605-0.969-0.202-1.373,0.121-1.857
					s0.041-2.141-2.221-2.141c-4.453,0-4.911,3.507-3.918,5.492c0.243,0.485,0.041,1.414-0.768,0.404
					c-2.703-3.379,1.297-9.491,7.472-9.491c5.923,0,12.034,5.284,12.034,13.166c0,7.135-6.562,14.458-16.154,14.458
					c-11.105,0-19.349-12.371-16.88-22.777"/>
				<path fill="#5F5D5A" d="M16.789,35.402c-0.605-0.268-0.727-0.243-0.929,0.323c-0.519,1.453,0.957,3.635,2.464,3.635
					c2.053,0,3.345-1.643,3.917-2.787c0.404-0.808,1.01-2.181,1.413-2.464c0.404-0.282,0.97-0.04,1.131,0.162
					c0.162,0.202,0.708,0.62,1.334,0.121c1.009-0.808,2.341-2.463,2.584-2.867c0.242-0.404,0.635-0.393,0.687,0.282
					c0.125,1.628,1.726,3.213,3.634,2.02c0.324-0.202,0.364-0.808-0.241-0.889s-1.253-1.817-0.889-2.988
					c0.531-1.713,2.787-4.647,0.403-6.381c-3.036-2.208-6.655,3.534-8.925,7.351C21.594,33.908,20.625,37.099,16.789,35.402z"/>
				<path fill="#5F5D5A" d="M38.556,19.369c6.324-1.135,13.118,0.121,17.043,2.262c0.443,0.242,0.443,0.889-0.404,0.525
					c-4.976-2.133-12.053-3.158-15.952-1.696c-0.646,0.242-0.728,0.605-0.687,1.01c0.04,0.403-0.121,1.332-1.09,1.615
					c-1.182,0.345-2.151-0.345-2.423-0.889c-0.162-0.323-1.272,0.04-2,0.949c-0.392,0.49-1.15-0.182-0.787-0.666
					c0.363-0.485,1.453-1.151,1.696-1.272c0.242-0.121,0.516-0.303,0.394-0.818c-0.121-0.515,0.061-1.938,1.182-2.393
					c1.12-0.454,2.06,0.333,2.362,1.029C38.031,19.35,38.163,19.44,38.556,19.369z"/>
				<path fill="#5F5D5A" d="M32.539,5.073c0.241,0.623,0.525,0.727,0.849,0.242c0.322-0.485,2.101-1.212,2.625-0.162
					c1.208,2.415,1.394,5.896,3.796,5.694c0.485-0.04,1.252-0.282,1.817,0.808c1.075,2.072,5.926,5.278,9.127,6.422
					c10.28,3.671,14.383,8.693,16.961,13.853c0.203,0.403,0.7,0.56,0.364-0.202c-1.332-3.029-4.645-7.432-7.066-10.299
					c-6.149-7.275-2.581-13.73,0.888-13.73c0.898,0,1.559,0.834,1.414,1.413c-0.081,0.323,0.08,0.727,0.726,0.484
					c1.667-0.624,2.198-3.259,1.253-4.361c-0.242-0.282-0.04-0.605,0.605-0.727c1.227-0.23,2.415,0.156,3.03,0.565
					c0.363,0.242,0.402,0.363-0.121,0.565c-0.525,0.201-1.899,1.776-1.737,2.746c0.161,0.969,0.848,0.929,1.575,0.605
					c0.727-0.323,2.988-0.202,2.988,2.302s-3.393,3.231-4.362,3.231c-0.969,0-0.646,0.646,0.041,0.727
					c3.79,0.445,6.745-2.828,6.745-6.3c0-2.867-2.383-7.875-7.997-7.875c-7.723,0-13.278,11.455-5.896,20.313
					c0.404,0.484,0.388,0.94-0.323,0.444c-2.14-1.495-6.259-3.393-8.845-4.442c-2.807-1.141-7.134-3.767-7.592-6.058
					c-0.081-0.404,0.04-0.687,0.848-0.646c1.419,0.071,2.815-1.362,2.181-2.948c-1.128-2.82-0.911-4.442,0.364-4.442
					c0.646,0,0.969,0.202,1.05,0.484c0.08,0.283,0.929,0.485,0.929-0.929c0-2.788-4.88-3.403-6.099-1.373
					c-0.242,0.404-0.646,0.97-1.13,0.242c-0.485-0.727-1.01-1.373-2.02-1.171c-1.011,0.202-1.304,0.763-1.333,1.373
					c-0.04,0.848-0.889,1.333-1.01,0.242c-0.121-1.09-0.524-1.857-2.222-1.857C33.266,0.308,31.65,2.771,32.539,5.073z"/>
				<path fill="#5F5D5A" d="M9.923,7.738c1.776,0,3.231,0.929,3.353,1.534c0.121,0.606,0.443,0.525,0.968,0.081
					c1.346-1.138,0.918-3.499,0.041-4.2c-0.403-0.323-0.201-0.605,0.404-0.646c2.308-0.154,4.456,2.146,4.321,4.038
					c-0.041,0.565-0.646,1.615-1.171,1.898c-0.525,0.282-0.323,1.333,0.524,1.171c1.666-0.317,2.09-1.352,2.141-1.656
					c0.081-0.484,0.484-0.564,0.687,0c0.884,2.478,3.867,4.443,6.219,4.443c3.016,0,4.807-2.585,4.807-4.321
					c0-2.303-1.575-4.362-3.918-4.362c-1.622,0-3.028,1.354-3.028,2.948c0,1.454,1.211,2.504,2.342,2.504
					c1.775,0,2.357-1.474,2.141-2.343c-0.081-0.322,0.444-1.009,0.889-0.363c1.161,1.69,0.137,4.847-3.271,4.847
					c-1.252,0-3.353-0.565-4.564-4.321s-4.038-7.794-9.975-7.794c-6.967,0-10.541,7.263-10.541,12.155
					c0,4.022,2.868,6.381,4.038,7.148c0.413,0.271,0.728,0.929-0.04,1.212c-0.768,0.282-1.776,0.969-1.776,2.221
					c0,1.797,1.145,2.699,2.141,2.948c0.484,0.121,0.687-0.161,0.565-0.808s0.362-2.907,3.108-2.907
					c2.747,0,4.201,0.969,7.148,0.969c2.948,0,5.856-1.091,7.593-2.141c2.943-1.779,4.979-1.431,6.744,0.04
					c0.243,0.202,0.97,0.081,0.323-0.564c-0.646-0.646-1.817-1.615-3.837-1.615s-3.514,1.372-4.806,1.816
					c-2.784,0.957-5.205,1.614-7.915,0.646c-0.565-0.202-0.808-0.565,0.04-0.727c3.729-0.711,5.378-5.126,2.786-6.422
					c-0.484-0.242-0.727,0.081-0.484,0.484c0.881,1.468-0.618,2.464-1.575,2.464c-1.373,0-2.14-1.131-2.463-2.665
					c-0.324-1.535-0.565-2.343-1.697-2.988c-1.13-0.646-2.382-1.616-3.189-1.172c-0.809,0.444-1.575,2.585-1.252,3.474
					c0.322,0.888-0.04,0.888-0.524,0.282C4.843,12.08,6.274,7.738,9.923,7.738z"/>
				<path fill="#5F5D5A" d="M65.897,46.468c0.35-0.294,0.485-0.202,0.565,0.242c0.592,3.257,0.175,6.437-1.453,8.764
					c-0.284,0.403,0,0.808,0.484,0.202c0.484-0.606,2.302-3.353,2.302-8.925c0-9.057-5.096-13.332-8.926-13.651
					c-0.483-0.04-0.646,0.404,0,0.566c1.717,0.429,3.515,2.323,3.515,4.765c0,2.141-0.646,3.19-0.646,4.887
					C61.738,46.552,64.47,47.669,65.897,46.468z"/>
				<path fill="#5F5D5A" d="M67.311,57.735c-0.353,0.493-0.041,0.929,0.364,0.524c0.403-0.403,1.333-1.332,2.02-2.463
					c1.453-2.396,3.773-1.528,4.119,0.363c0.08,0.444,0.363,0.484,0.807,0.161c1.471-1.069,0.891-4.725-1.656-4.725
					c-1.533,0-2.543,1.09-3.109,2.06C69.291,54.625,68.322,56.321,67.311,57.735z"/>
				<path fill="#5F5D5A" d="M85.484,1.317c1.213,0,1.738,0.767,1.738,1.534s-0.365,1.696-1.373,1.696
					c-0.674,0-0.986-0.342-1.131-0.969c-0.092-0.395-0.789-1.151-2.303,0.484c-3.051,3.295-1.766,7.145-0.303,9.057
					c1.18,1.544,3.301,2.877,3.725,3.119s0.334,0.787-0.211,0.454c-0.547-0.333-3.605-2.453-5.18-2.453s-1.908,0.879-1.939,1.182
					c-0.029,0.303-0.242,0.515-0.727,0.151c-1.904-1.43-1.203-4.134,0.637-4.302c0.332-0.03,0.818,0.152,0.666-0.394
					C77.951,6.8,81.681,1.317,85.484,1.317z"/>
				<path fill="#5F5D5A" d="M132.654,24.821c0.271,0.428,0.646,0.524,0.324-0.202c-1.119-2.519-4.104-6.669-6.988-8.966
					c-2.381-1.897-7.43-5.613-7.43-8.925c0-4.255,4.49-4.797,5.613-3.392c0.162,0.201-0.121,0.564-0.646,0.403
					c-0.949-0.292-2.059,0.373-2.059,1.776c0,1.414,1.332,2.262,2.18,2.262c1.609,0,2.828-1.245,2.828-3.028
					c0-2.1-2.182-3.918-4.281-3.918c-5.018,0-5.969,6.186-4.402,8.926c0.324,0.565,0.727,1.736-0.201,1.575
					c-3.293-0.572-5.412,1.911-5.412,3.433c0,2.751,2.732,3.603,3.756,3.433c0.484-0.081,0.484-0.484,0.121-0.929
					c-0.605-0.741-0.377-2.706,2.666-2.706C124.591,14.563,128.859,18.845,132.654,24.821z"/>
				<path fill="#5F5D5A" d="M139.117,29.062c0-5.337,5.297-9.37,9.65-7.391c0.445,0.202,0.404,0.929-0.645,0.728
					c-2.943-0.565-4.523,0.996-4.523,2.746c0,2.997,3.672,3.281,3.998,1.332c0.08-0.484,0.363-0.564,0.686-0.161
					c1.191,1.487,0.178,5.896-3.756,5.896c-0.807,0-2.543-0.808-2.785-1.212c-0.242-0.403-0.688-0.08-0.729,0.606
					c-0.039,0.687-0.244,3.756-0.082,5.896c0.256,3.398-1.916,10.602-3.834,12.52c-0.566,0.565-0.688,0.363-0.203-0.524
					c1.846-3.382,2.99-6.675,2.99-11.874C139.884,35.2,139.117,32.696,139.117,29.062z"/>
				<path fill="#5F5D5A" d="M87.261,61.854c5.32,0,7.059-5.351,7.059-8.692c0-2.64-2.041-5.61-3.271-7.088
					c-0.305-0.363-0.027-0.731,0.484-0.242c2.23,2.13,3.766,5.136,3.766,7.582c0,3.251-1.465,6.401-2.797,7.622
					c-0.363,0.334-0.242,0.637,0.092,0.909c0.332,0.272,1.453,1.908,1.453,3.423c0,1.931-2.355,4.274-5.896,3.958
					c-4.678-0.419-6.967,0.903-6.623,3.312c0.08,0.564-0.041,1.131-0.688,1.131s-1.373-1.374-1.373-2.706
					c0-2.499,2.498-4.334,4.16-4.928c0.564-0.201,0.605-0.605-0.121-0.646c-2.471-0.138-5.613-2.454-5.613-5.896
					c0-3.891,2.773-6.018,5.332-6.018c1.623,0,2.973,1.07,3.352,1.979c0.201,0.484-0.324,0.646-0.646,0.121
					c-0.902-1.466-4.16-1.368-4.16,1.817C81.769,59.27,83.263,61.854,87.261,61.854z"/>
			</g>
		</g>
	</g>
	<circle fill="#5F5D5A" cx="225.064" cy="37.502" r="2.013"/>
	<circle fill="#08090E" cx="300.363" cy="37.502" r="2.013"/>
	<circle fill="#08090E" cx="324.009" cy="37.502" r="2.013"/>
	<circle fill="#08090E" cx="241.279" cy="30.029" r="2.013"/>
	<circle fill="#08090E" cx="166.443" cy="5.017" r="2.013"/>
	<g>
		<path fill="#08090E" d="M227.548,36.503c0.27,0.422,0.24,1.432-0.061,1.908c-1,1.575-0.521,2.653,0,3.271
			c0.717,0.85,1.703,0.188,2.514,0.666c1.432,0.846,1.145,1.773,0.969,2.241c-0.182,0.484,0.121,0.666,0.727,0.363
			c1.982-0.991,2.178-3.774,0.182-5.604c-0.363-0.333-1.363-0.272-1.363-1.06c0-0.788,0.789-1.091,1.727-1.03
			c4.625,0.299,4.625-4.044,3.816-5.301c-0.271-0.424-0.605-0.424-0.727,0.061s-0.424,1.878-1.787,1.878s-2.695-0.484-3.785-1.06
			c-1.092-0.575-2.332-0.061-2.787,0.878C226.517,34.655,227.062,35.745,227.548,36.503z"/>
		<path fill="#08090E" d="M303.753,35.039c-0.766,0-1.17,0.565-1.17,1.009c0,0.444,0.766,0.646,0.766,1.454
			c0,0.809-0.604,0.727-0.604,1.414c0,0.687,0.402,0.768,0.887,0.768c0.486,0,1.613-0.646,1.613-2.182
			C305.246,35.968,304.603,35.039,303.753,35.039z"/>
		<path fill="#08090E" d="M376.044,35.039c0.768,0,1.17,0.565,1.17,1.009c0,0.444-0.764,0.646-0.764,1.454
			c0,0.809,0.604,0.727,0.604,1.414c0,0.687-0.404,0.768-0.889,0.768s-1.613-0.646-1.613-2.182
			C374.552,35.968,375.195,35.039,376.044,35.039z"/>
	</g>
	<g>
		<path fill="#98928F" d="M231.687,37.946c-0.447-0.105-0.566,0.323-0.121,0.444c5.426,1.479,7.381,6.073,6.865,11.227
			c-0.041,0.404-0.605,0.93-1.049,0.202c-0.445-0.727-1.98-1.494-3.354-0.403c-1.373,1.09-1.736,2.665-1.574,4.442
			c0.207,2.272-0.443,2.964-1.857,2.746c-0.525-0.081-0.768,0.323-0.404,0.848c2.047,2.957,5.08,1.654,5.33,0.404
			c0.082-0.404,0.768-0.808,0.809-0.081c0.041,0.728,0.727,2.424,1.414,3.393c0.686,0.969,1.09,1.615,1.211,1.938
			s0.322,0.363,0.525-0.161c0.201-0.525,1.01-2.303,1.494-3.029c0.693-1.042,1.096-2.148,0.686-3.069
			c-0.16-0.363,0.324-1.091,0.646-0.242c0.754,1.979,3.459,4.645,5.533,4.645c3.15,0,4.777-3.029,3.352-5.089
			c-0.363-0.525-0.605-0.444-0.848-0.081s-0.93,0.97-2.221,0.97c-1.293,0-3.662-0.711-5.25-4.766
			C240.167,45.377,238.462,39.548,231.687,37.946z"/>
		<path fill="#98928F" d="M242.146,59.027c-0.104-0.598,0.354-0.585,0.525-0.04c2.17,6.838-3.152,14.014-8.561,14.014
			c-4.773,0-7.291-5.116-5.492-7.512c0.242-0.323,0.807-0.041,0.686,0.605c-0.441,2.356,1.688,3.918,3.514,3.918
			c0.363,0,0.688-0.122,0.404-0.809c-0.496-1.202,0.664-3.495,2.504-3.312c0.404,0.041,0.848,0.364,0.564,1.01
			c-0.281,0.646,0.363,1.373,1.414,1.373C241.273,68.275,243.089,64.419,242.146,59.027z"/>
		<path fill="#98928F" d="M249.74,67.023c-3.043-1.412-6.479-5.643-7.27-8.278c-0.121-0.404,0.242-0.688,0.605,0
			c1.486,2.807,5.123,7.955,11.389,7.955c3.441,0,5.242-0.445,6.543-2.948c1.615-3.109,4.197-3.969,5.047-2.907
			c0.162,0.202,0.324,0.484-0.201,0.484s-1.574,0.404-1.574,1.333c0,1.454,1.029,1.979,2.342,1.979c0.619,0,1.865-1.427,1.09-2.423
			c-0.283-0.363,0.283-0.404,0.688-0.04c0.402,0.363,0.928,1.413,0.928,2.463c0,3.604-9.779,4.602-12.316,3.756
			c-0.484-0.161-0.688,0.283-0.041,0.444c6.564,1.642,15.547,1.441,22.131-2.948c0.242-0.161,0.688-0.484-0.283-0.768
			c-3.043-0.887-1.99-5.237,1.373-6.098c1.529-0.391,4.242-0.182,4.242-2.463c0-0.93-1.252-1.454-1.738-1.454
			c-0.484,0-0.564-0.485,0.242-0.646c2.727-0.545,4.746,2.483,4.039,4.604c-0.162,0.485,0.121,0.909,0.787,0.425
			c4.625-3.363,6.361-9.197,6.361-16.175c0-9.895-6.664-18.536-12.602-18.536c-2.818,0-3.238,2.544-1.734,3.796
			c0.242,0.202,0.443,0.565-0.283,0.808c-1.623,0.541-4.402-0.446-4.402-3.069c0-2.955,4.482-3.998,6.219-3.514
			c0.312,0.087,0.248-0.293,0.309-0.459c0.061-0.167,0.268-0.243,0.787,0.075c7.133,4.361,11.344,8.996,12.555,18.688
			c0.076,0.607,0.334,0.757,0.545,0.121c0.762-2.284,2.086-2.813,3.121-2.09c0.303,0.212,0.521,0.652,0,0.879
			c-0.908,0.394-2.393,2.12-2.879,3.906c-0.484,1.788-0.674,2.526-0.908,4.393c-0.418,3.353-1.893,8.278-5.998,11.419
			c-0.477,0.365-0.15,0.666,0.547,0.454c0.695-0.212,3.572-0.727,6.088,0.728c3.807,2.2,5.209,3.866,5.209,7.359
			c0,5.412-7.451,6.815-10.176,3.786c-0.547-0.605-0.273-0.938,0.453-0.969s3.303-0.213,3.303-3.241
			c0-3.029-3.363-3.968-6.906-3.968c-3.545,0-7.814,2.696-7.814,4.513c0,1.817,1.605,1.545,2.301,1.363
			c0.697-0.182,0.758,0.212,0.152,0.817c-0.607,0.606-5.543,2.848-7.33,2.302c-1.199-0.365-1.688-1.319-1.908-2.089
			c-0.121-0.425-0.273-0.667-0.879-0.485s-6.783,0.575-7.541,0.545s-0.879,0.213-0.273,0.485c1.809,0.812,2.363,2.802,1,4.119
			c-0.908,0.879-1.004-0.218-1.09-0.787c-0.242-1.575-1.576-2.817-3.393-3.574c-1.818-0.758-3.121-1.182-3.574-1.272
			c-0.455-0.091-0.668,0.091-0.152,0.545c1.027,0.907,1.939,3.393-0.816,4.089c-0.717,0.181-1.121-0.06-0.85-0.696
			c0.273-0.636,0.031-1.999-1.514-1.999c-2.484,0-2.393,1.151-4.301,1.151c-0.939,0-2.424-0.737-2.424-2.241
			c0-1.949,1.838-2.888,2.756-3.029C250.113,67.579,250.304,67.286,249.74,67.023z"/>
		<path fill="#98928F" d="M295.113,35.442c0.021,0.691,0.566,0.765,0.645,0c0.162-1.575-0.201-4.281-0.322-4.725
			c-0.121-0.444,0.121-0.728,0.768-0.728s2.545-0.646,2.545-2.625c0-1.751-0.676-2.4-1.455-2.584
			c-0.686-0.162-1.211-0.758-0.686-1.414c0.641-0.802,0.096-2.986-2.061-3.109c-2.826-0.161-2.777-2.502-0.848-3.029
			c0.443-0.121,0.605-0.767-0.121-0.767c-1.273,0-3.676,1.393-3.676,4.967c0,2.383,1.777,4.887,2.949,6.825
			C294.021,30.192,295.031,32.898,295.113,35.442z"/>
		<path fill="#98928F" d="M223.105,37.058c-2.732,0.421-6.42,0.462-6.42-2.382c0-1.604,1.951-1.81,2.664-0.525
			c0.203,0.363,0.688,0.565,1.092,0.121c1.064-1.172-0.17-4.079-2.869-4.079c-2.059,0-3.23,2.222-3.23,3.797
			c0,3.912,5.803,4.17,7.473,3.836c0.402-0.081,0.766,0.282,0.039,0.485c-2.873,0.798-13.166,2.425-13.166-3.353
			c0-1.643,1.326-2.16,1.939-2.222c0.404-0.04,0.688-0.363,0.322-1.009c-2.119-3.77-7.672-2.417-7.672,0.848
			c0,2.91,2.658,5.025,3.877,5.532c0.484,0.203,0.443,0.728-0.283,0.646c-5.566-0.618-8.32,1.062-8.32,3.353
			c0,4.58,4.975,3.96,5.574,3.189c0.283-0.363,0.332-0.576-0.283-0.807c-2.584-0.97-1.346-4.281,3.271-4.281
			c2.746,0,9.006,1.252,16.275-1.454C223.146,38.067,223.044,37.623,223.105,37.058z"/>
		<path fill="#98928F" d="M199.681,15.25c0,0.491,0.445,0.768,0.566,0.242s0.404-1.292,1.455-1.292c1.049,0,1.373,1.413,0.846,3.149
			c-1.139,3.77,0.893,10.904,8.4,10.904c3.561,0,7.088-2.524,7.795-4.079c0.201-0.444,0.646-0.484,0.646,0.121
			c0,2.208,2.686,3.756,3.553,3.756c0.486,0,0.729-0.565,0.244-0.929c-0.486-0.363-1.293-1.857-0.082-3.069
			c2.539-2.537,1.791-5.896-0.283-5.896c-1.09,0-1.857,0.969-2.018,1.373c-0.162,0.403-0.486,0.524-0.445-0.202
			c0.18-3.236-0.307-6.153-2.463-8.925c-0.283-0.364-0.08-1.091,0.484-0.687c0.564,0.403,3.15,1.251,5.291-0.323
			c2.141-1.575,2.664-5.978,0.969-5.978c-1.01,0-0.889,0.889-0.605,1.413c0.281,0.525,0.402,1.818-0.971,1.818
			s-2.1-1.132-2.988-2.262c-0.887-1.131-1.896-1.858-3.553-1.858c-1.867,0-3.311,2.511-2.828,3.958
			c0.162,0.484,0.041,0.646-0.523,0.403c-6.182-2.647-14.1-0.171-17.852,6.704c-0.242,0.444-0.666,0.712-0.484-0.161
			c0.363-1.736,0.107-5.51-0.162-6.583c-0.625-2.505,1.354-3.539,2.828-3.271c0.443,0.08,0.889-0.122,0.727-1.091
			c-0.162-0.97-1.615-2.02-3.189-2.02c-1.795,0-2.604,1.67-2.141,2.746c0.121,0.283-0.189,0.985-0.646,0.364
			c-1.455-1.979-4.484-3.393-7.594-3.393c-4.777,0-8.717,2.767-9.975,4.482c-0.443,0.605,0.242,1.131,0.93,0.444
			c1.396-1.397,3.715-1.854,5.896-0.121c1.574,1.252,4.199,3.15,6.139,3.15c2.744,0,3.111-2.875,2.422-3.716
			c-0.363-0.444,0.082-0.97,0.768-0.525c1.68,1.087,3.57,5.065,3.15,9.369c-1.191,12.183,0.705,17.3,6.986,22.011
			c0.322,0.242,0.949,0.131,0.344-0.354c-4.301-3.441-6.785-7.837-6.785-13.781c0-7.593,5.836-13.69,13.508-13.69
			c6.887,0,10.703,4.644,10.582,9.288c-0.012,0.446-0.363,0.808-0.686,0.202c-0.324-0.606-1.656-1.817-2.949-1.817
			s-2.543,1.413-2.746,2.504c-0.107,0.578,0.445,0.605,0.93,0.323c0.814-0.476,2.141,0.3,2.141,2.06
			c0,1.292-1.373,2.342-2.262,2.342c-0.891,0-1.535-1.09-1.334-1.655c0.203-0.565-0.465-0.592-0.969-0.444
			c-0.969,0.282-2.141,1.292-2.141,2.827c0,1.534,1.334,2.948,1.939,2.988s0.525,0.565-0.121,0.525
			c-1.279-0.08-5.01-0.715-5.01-5.291c0-2.383,0.768-3.393,0.768-5.452s-1.695-3.473-3.27-3.473
			C201.337,12.383,199.681,13.635,199.681,15.25z"/>
		<path fill="#98928F" d="M182.115,36.331c5.148,0,12.398,4.321,12.398,12.56c0,5.533-4.355,13.327-15.023,13.327
			c-10.891,0-17.527-9.955-17.527-17.083c0-8.171,8.145-18.456,19.143-18.456c3.594,0,9.529,1.858,13.246,4.482
			c3.715,2.625,5.775,4.241,9.691,5.614c0.918,0.321,0.701,0.976-0.242,0.646c-4.158-1.453-8.277-4.361-9.691-5.491
			c-0.404-0.323-1.172-0.445-0.848,0.322c0.322,0.768,0.439,2.791-1.254,2.907c-1.17,0.081-3.592-1.292-4.926-2.261
			c-2.785-2.026-4.436-2.039-6.623-0.728c-0.404,0.243-0.969-0.04-0.322-0.687c2.111-2.111,6.328-2.142,8.439-1.816
			c0.525,0.08,0.971-0.121,0.08-0.485c-4.236-1.733-11.52-2.614-15.385,1.252c-0.365,0.363-0.365,0.727,0.281,0.889
			c1.465,0.366,2.258,2.252,0.324,3.917c-1.455,1.252-4.402,2.383-4.645,5.533c-0.043,0.563-0.363,0.889-0.566,0.081
			c-0.668-2.673-0.496-4.806,0.404-6.381c0.324-0.565,0.027-0.688-0.484-0.323c-1.535,1.09-2.867,4.119-2.867,6.179
			c0,3.135,2.193,5.185,5.129,5.654c2.287,0.365,5.164,1.68,5.291,3.069c0.039,0.444-0.445,0.848-1.131,0.564
			c-0.688-0.282-1.455-0.08-1.455,0.728s0.727,1.171,2.383,1.575c3.314,0.808,3.338,4.368,1.09,5.331
			c-0.564,0.242-1.049-0.121-0.645-0.768c0.402-0.646-0.363-2.302-2.262-2.101c-1.898,0.202-2.908-0.161-3.514-0.363
			s-1.131-0.403-1.455,0.121c-0.322,0.525-0.807,0.929-1.414,0.728c-0.604-0.202-0.281-0.606,0-0.93
			c0.285-0.322,0.244-1.695-0.967-2.221c-1.213-0.525-2.908-1.454-2.787-2.504s1.17-0.605,1.293-1.131
			c0.121-0.525,0-1.212-0.525-2.222c-0.525-1.009-0.688-2.584-0.727-3.23c-0.041-0.646-0.607-0.323-0.809,0.202
			c-1.875,4.874,2.398,16.416,13.287,17.972c0.848,0.121,1.615-0.162,1.291-0.849c-0.574-1.221,0.73-2.871,2.787-2.665
			c1.855,0.186,3.564-0.879,2.908-2.06c-0.203-0.363,0.281-0.363,0.688-0.121c0.943,0.566,0.799,2.818,0.322,3.473
			c-0.322,0.444-0.322,1.01,0.564,0.687c2.443-0.889,3.959-3.184,3.959-5.048c0-2.18-2.008-3.023-3.07-1.656
			c-0.281,0.364-0.689,0.365-0.93-0.08c-0.564-1.05-0.605-2.868,0.648-3.756c1.568-1.113,3.297-0.36,3.715,0.161
			c0.322,0.404,0.645,0.404,0.686-0.444c0.088-1.835-0.908-4.121-1.938-5.048c-0.404-0.363-0.848-0.282-0.809,0.565
			c0.041,0.848-0.688,2.948-2.787,2.948s-3.473-1.777-3.674-2.585c-0.203-0.808,0.121-0.768,0.688-0.646
			c1.756,0.376,2.947-0.936,2.947-2.545c0-1.898-1.859-2.826-3.635-2.826c-5.096,0-7.6,4.637-5.09,7.147
			c0.404,0.403-0.039,1.05-0.645,0.525C171.695,43.008,175.074,36.331,182.115,36.331z"/>
		<path fill="#98928F" d="M166.082,57.775c-0.393-0.493-0.041-0.848,0.322-0.404c3.383,4.133,9.059,6.139,14.984,6.139
			c7.697,0,12.15-4.18,16.072-8.48c3.859-4.233,8.506-8.562,14.539-8.562c6.508,0,13.529,5.203,13.529,13.004
			c0,5.136-4.422,12.317-11.229,12.317c-5.652,0-9.934-3.433-9.934-7.956c0-4.522,4.16-6.098,5.168-6.139
			c1.012-0.04,0.768,0.728,0,0.849c-2.389,0.377-3.613,2.604-3.27,4.321c0.121,0.605,0.727,0.444,0.969-0.081
			c0.242-0.524,0.977-0.555,2.059-0.04c2.465,1.171,2.303,3.675,5.695,3.675c3.754,0,2.986-4.906,0.727-4.482
			c-0.646,0.121-0.727-0.323-0.322-1.05c1.768-3.181,6.176-1.135,6.381,1.534c0.041,0.525,0.484,0.848,0.928,0.202
			c1.113-1.618,1.225-5.215,0.566-6.422c-0.242-0.444-0.646-0.444-1.131-0.04s-1.777,1.413-2.545,0.605s0.041-0.969,0-1.655
			c-0.039-0.687-0.727-1.979-2.625-1.252s-5.652,1.333-5.652-1.333c0-1.989,2.576-2.688,2.785-2.746
			c0.727-0.202,0.324-0.484-0.242-0.687c-1.955-0.698-5.482-0.601-6.744,0.282c-0.404,0.283-0.525,0.768,0.082,0.97
			c1.148,0.384,1.689,1.817,1.17,3.028c-0.242,0.565-0.646,0.525-1.211,0.243c-0.566-0.283-3.238-0.564-3.635,1.534
			c-0.729,3.837-4.725,3.729-4.887,1.454c-0.041-0.565-0.324-0.606-0.768-0.162c-0.445,0.444-2.787,2.868-3.352,3.353
			c-0.566,0.484-0.484,0.848,0.443,0.848c2.559,0,6.098,1.454,6.098,5.17c0,2.668-3.525,5.86-6.299,2.625
			c-0.484-0.565-0.484-0.889,0.322-1.051c0.809-0.161,2.262-0.888,2.262-2.503c0-1.616-1.576-2.55-3.068-2.625
			c-2.385-0.122-6.422,1.655-7.391,2.019c-0.971,0.363-0.566,0.525,0.041,0.687c1.318,0.352,4.885,2.576,4.885,6.22
			c0,1.209-0.936,2.532-2.139,2.867c-0.729,0.202-0.85-0.363-0.445-0.808c0.887-0.977,0.244-2.101-0.768-2.101
			c-1.564,0-1.465,1.879-0.688,2.545c0.283,0.242,0.268,1.084-0.486,0.767c-1.25-0.524-2.34-2.181-2.5-4.321
			c-0.279-3.675-1.844-4.792-5.574-5.572C175.273,63.736,169.759,62.389,166.082,57.775z"/>
		<path fill="#98928F" d="M317.082,19.692c0-1.777-0.768-3.15-2.787-3.474c-2.018-0.322-4.361-0.807-4.158-4.159
			c0.201-3.352,1.291-4.119,1.857-3.958c0.564,0.162,1.049,0.283,1.129,0.484c0.082,0.202,0.365,0.081,0.285-0.646
			c-0.295-2.646,3.24-6.543,7.994-6.543c4.074,0,7.148,3.474,7.148,6.745c0,2.948-1.613,4.563-3.23,4.563
			c-1.615,0-2.504-1.535-2.504-2.424c0-2.751,3.123-2.538,3.836-0.969c0.203,0.444,0.457,0.638,0.566,0
			c0.525-3.069-1.881-5.412-4.725-5.412c-2.666,0-4.846,2.222-4.846,5.533c0,5.937,5.129,9.046,5.129,16.599
			c0,8.597-7.594,13.488-16.236,11.348c-0.395-0.098-0.484-0.605,0.203-0.444c5.52,1.299,12.559-1.09,12.559-6.3
			c0-2.585-1.494-4.563-3.877-4.563c-1.545,0-2.211,1.191-2.262,1.898c-0.041,0.565-0.201,1.13-1.09,1.13
			c-2.631,0-3.359-3.075-2.543-4.24c0.281-0.403,0.08-0.808-0.527-0.524c-3.789,1.77-3.391,5.734-0.039,7.31
			c0.508,0.238,0.646,0.889-0.363,0.687c-3.07-0.614-4.686-3.876-4.686-5.978c0-2.848,1.508-4.784,2.545-5.613
			c0.404-0.323,0.443-0.727,0.162-1.05c-0.283-0.323-1.252-0.97-0.85-1.575c0.404-0.605,1.939-1.252,3.029-1.252
			s2.383,1.535,3.15,2.989c0.768,1.453,1.818,2.019,3.07,2.019S317.082,20.863,317.082,19.692z"/>
		<path fill="#98928F" d="M313.197,42.21c0.459,0.62,2.189,2.966,2.189,5.065c0,1.813-1.643,4.009-3.758,3.877
			c-0.645-0.04-0.773-0.666-0.119-0.808c3.352-0.728,2.869-4.968-1.738-4.968c-2.273,0-4.119-0.666-4.119-2.705
			c0-1.08,1.279-2.582,2.424-2.827c0.566-0.121,0.646-0.404,0.242-0.565c-0.404-0.162-1.574-0.444-2.221-0.525
			c-0.646-0.08-0.371-0.767,0.121-0.767C308.642,37.987,311.257,39.583,313.197,42.21z"/>
		<path fill="#98928F" d="M313.345,41.863c-0.402-0.322-0.318-1.166,0.41-0.52c2.387,2.122,4.906,4.565,6.92,6.981
			c3.898,4.678,9.383,10.178,17.125,10.178c4.449,0,5.307-4.344,2.664-4.584c-0.666-0.061-0.787-0.546-0.242-1.151
			c2.65-2.945,6.555,0.46,4.967,3.635c-0.182,0.363-0.242,0.849,0.525,0.565c2.055-0.757,3.08-3.193,3.312-5.21
			c0.316-2.769,2.893-6.008,5.129-6.381c0.484-0.081,0.969,0.162,0.281,0.728c-1.74,1.434-1.441,4.28,1.334,4.28
			c4.43,0,5.693-4.577,5.693-8.158c0-3.722-1.555-6.784-4.402-6.784c-1.787,0-3.045,1.541-2.02,3.595
			c0.244,0.484,0.244,0.808-0.605,0.808c-2.797,0-3.865-4.551-1.17-5.775c0.443-0.202,0.564-0.768-0.203-0.687
			s-2.018-0.081-2.543-1.05c-0.525-0.97-0.971-1.696-1.334-1.898c-0.363-0.201-0.242-0.605,0.162-1.01
			c1.133-1.133,3.135-0.859,4.199-0.646c0.404,0.081,1.172-0.162,1.172-1.131c0-1.44-3.6-3.312-7.795-3.312
			c-4.418,0-8.182,2.712-9.125,4.078c-0.365,0.525-0.283,0.889,0.443,0.809c3.123-0.348,4.846,4.846,2.988,7.31
			c-0.361,0.479-0.768,0.524-0.889-0.242c-0.121-0.768-1.332-1.737-2.826-1.737c-1.496,0-3.514,1.252-3.514,4.039
			c0,2.786,3.432,5.573,6.904,5.573c5.271,0,7.23-3.42,7.23-5.614c0-2.313-1.381-4.256-2.342-4.522
			c-0.729-0.202-0.404-0.849,0.281-0.687c1.945,0.457,2.988,3.884,2.988,5.855c0,3.581-4.361,7.027-8.723,7.027
			c-4.443,0-9.611-4.968-9.611-10.581c0-7.893,8.172-12.65,15.387-13.165c0.564-0.041,0.605-0.283-0.041-0.404
			s-5.814,0.323-8.48,0.808c-6.105,1.11-11.025,0.263-11.025-3.958c0-2.853,3.877-4.725,5.977-2.342
			c0.344,0.388,0.242,0.727-0.564,0.808c-0.809,0.081-1.736,0.484-1.736,1.615c0,2.032,3.393,3.654,10.016,2.544
			c13.604-2.279,22.938,9.227,22.938,18.134c0,6.097-1.963,11.934-6.299,15.548c-1.092,0.908-3.029,2.585-3.635,2.948
			c-0.844,0.506-1.01,0.808-0.484,0.808c0.477,0,3.668,0.936,4.078,4.119c0.162,1.252-0.443,1.01-0.566,0.646
			c-0.516-1.55-2.787-1.048-3.432-0.403c-0.566,0.565-1.736,1.857-3.191,1.857c-1.289,0-2.789-2.221-1.615-3.917
			c0.365-0.525,0.203-0.727-0.281-0.565c-0.484,0.162-2.787,0.727-4.322,0.646c-0.645-0.034-0.768,0.484-0.322,0.727
			c1.803,0.984,3.998,2.967,3.998,6.3c0,1.703-1.42,5.654-7.35,5.654c-5.195,0-5.885-6.846-3.596-8.117
			c0.729-0.404,0.971,0.282,0.646,0.687c-0.84,1.05-0.762,2.686-0.08,3.594c0.363,0.485,0.727,0.323,0.768-0.081
			c0.074-0.749,0.705-1.982,2.1-2.261c0.809-0.162,0.891,0.161,0.848,0.768c-0.162,2.302,4.645,2.907,4.645-0.93
			c0-3.392-3.271-5.048-5.412-5.653c-2.141-0.606-6.057-1.656-6.945-2.101c-0.889-0.443-1.051-0.04-0.688,0.606
			c3.541,6.293-0.598,11.994-4.684,11.994c-1.857,0-3.475-1.252-3.959-2.746c-0.217-0.671,0.566-1.212,0.93-0.444
			c1.34,2.827,7.066,2.119,7.066-2.746c0-2.182-1.412-3.675-3.352-3.675c-1.938,0-2.02,2.06-1.615,2.625
			c0.404,0.564,0.242,0.929-0.283,0.767c-2.031-0.625-3.674-3.178-3.674-5.694c0-2.642,1.904-4.103,3.553-4.2
			c0.688-0.04,0.809-0.242,0.363-0.565c-0.443-0.322-5.17-5.532-6.945-7.834c-1.777-2.302-5.371-5.735-5.936-6.099"/>
		<path fill="#98928F" d="M356.498,16.825c-1.855-5.566,1.416-9.329,3.998-9.329c1.615,0,2.828,1.373,2.908,1.938
			s0.242,0.565,0.807,0.161c2.732-1.951,0.803-5.715-1.252-6.058c-0.484-0.081-0.322-0.282,0.242-0.484
			c4.625-1.651,6.867,1.402,6.867,3.029c0,1.009-0.768,2.221-1.373,2.705c-0.607,0.484-0.971,1.616-0.162,1.777
			c0.807,0.161,1.494,0.808,1.494,1.776c0,0.97-1.131,2.464-2.584,2.464c-1.455,0-2.061-1.09-2.262-1.817
			c-0.203-0.727-0.646-0.404-0.646,0.242c0,0.929,1.547,2.908,3.916,2.908c3.232,0,6.018-3.19,6.018-6.987
			c0-3.675-3.393-8.562-8.926-8.562c-6.803,0-11.266,5.56-11.266,12.116c0,3.393,2.664,8.885,4.037,11.55s3.838,7.714,4.119,8.44
			c0.283,0.727,0.809,0.565,0.566-0.363s-2.221-5.896-2.867-7.148c-0.35-0.674,0.109-0.793,0.727-0.484
			c1.213,0.605,3.029-0.202,3.029-1.656c0-1.453-1.332-2.706-2.504-3.473c-2.271-1.488-1.361-4.106,0.363-3.675
			c0.484,0.121,0.969-0.041,0.404-0.565c-2.014-1.869-4.551-0.325-5.049,1.171C356.982,16.865,356.699,17.431,356.498,16.825z"/>
		<path fill="#98928F" d="M312.962,39.037c-0.822-0.384-0.727,0.282-0.162,0.484c1.102,0.394,3.455,2.525,5.371,4.442
			c4.08,4.079,8.6,8.495,12.844,7.552c0.363-0.08,0.695-0.687,0.09-1.171s-1.09-1.272-0.334-1.999
			c0.758-0.728,1.637-1.908,0.244-3.726c-1.395-1.817-2.758-1.424-3.242-1.03c-0.484,0.395-0.061,0.909,0.363,1.151
			c0.812,0.465,1.49,3.211-1.816,3.211c-2.242,0-5.877-2.271-7.512-4.18C317.173,41.863,314.628,39.814,312.962,39.037z"/>
	</g>
	<g>
		<path fill="#5F5D5A" d="M246.832,41.581c0.207-0.604,0.688-0.484,0.566,0.162c-0.123,0.646,0,2.18,0.686,3.957
			c0.688,1.777,1.252,5.896-1.09,6.26c-1.777,0.276-2.93-1.462-3.029-2.665c-0.041-0.484,0.203-0.525,0.646-0.364
			c1.006,0.366,2.453-0.451,2.625-1.655C247.519,45.296,246.226,43.358,246.832,41.581z"/>
		<path fill="#5F5D5A" d="M160.871,45.66c0.059-0.753,0.82-0.65,0.809,0.121c-0.041,2.948-2.023,6.905-5.533,6.905
			c-1.252,0-3.756-1.09-3.756-3.312c0-2.221,1.818-2.947,2.707-2.947c1.607,0,2.342,1.218,2.342,2.1
			c0,1.524-2.262,1.886-2.262,0.727c0-1.131-1.535-1.09-1.535-0.161c0,1.454,0.902,2.383,2.264,2.383
			C158.867,51.476,160.642,48.729,160.871,45.66z"/>
		<path fill="#5F5D5A" d="M168.423,61.936c-0.484-0.53-0.102-1.027,0.484-0.363c1.252,1.413,3.15,2.503,4.807,2.988
			c5.264,1.54,7.916,7.337,5.33,9.369c-0.564,0.444-0.889,0.081-0.646-0.646c0.398-1.191-0.818-3.202-2.221-3.433
			c-2.705-0.444-5.41-0.565-5.41-2.625c0-0.687,0.848-1.01,0.848-1.655c0-0.646-0.242-0.93-0.969-1.454
			C169.917,63.591,168.869,62.42,168.423,61.936z"/>
		<path fill="#5F5D5A" d="M341.777,10.626c0.473,0.23,0.908,0.061,0.383-0.384c-2.871-2.43-4.127-5.923-2.342-8.602
			c0.498-0.747,0.033-1.858-0.928-1.858c-1.252,0-1.656,1.575-1.656,2.625C337.234,4.753,338.876,9.216,341.777,10.626z"/>
		<path fill="#5F5D5A" d="M373.056,35.24c0.609,0,1.09,0.768,0.119,1.01c-2.381,0.596-3.957,2.057-3.957,3.393
			c0,2.367,2.471,1.995,3.555,1.01c0.443-0.404,1.252,0.242,0.525,0.929c-2.141,2.021-5.25,0.725-5.25-1.494
			C368.048,37.267,370.882,35.24,373.056,35.24z"/>
		<g>
			<path fill="#5F5D5A" d="M356.781,55.998c0.969-0.403,6.219-2.382,9.045-2.423c0.77-0.011,0.729-0.242,0.283-0.443
				c-0.445-0.202-1.051-1.293-1.051-2.101c0-1.853,2.559-3.438,6.018-1.534c2.484,1.365,3.959-0.034,3.959-1.495
				c0-1.679-1.406-2.588-2.707-1.938c-0.645,0.322-0.969-0.162-0.564-0.606c1.838-2.021,4.928,0.346,4.928,2.948
				c0,2.605-1.59,5.572-4.686,5.937c-0.686,0.081-0.848,0.403-0.201,0.646c2.639,0.989,4.846,4.563,4.846,8.683
				c0,3.541-2.572,11.778-14.297,8.037c-3.848-1.229-5.904-0.974-7.471,0.686c-0.688,0.728-1.09,0-0.969-0.565
				c0.803-3.752,3.906-4.513,5.855-3.756c0.727,0.283,0.809-0.201,0.443-0.687c-2.297-3.062,0.467-8.804,4.725-8.804
				c2.99,0,4.24,1.212,4.807,1.938c0.566,0.728,0.039,1.091-0.404,0.728c-2.268-1.856-6.582-1.463-6.582,2.261
				c0,2.442,2.766,1.676,2.867,0.565c0.039-0.443,0.363-0.687,0.807-0.443c2.213,1.206,1.875,5.026-1.574,5.371
				c-0.807,0.08-0.404,0.443,0,0.605c2.512,1.005,5.586,0.907,7.027-0.202c0.525-0.403,0.646-0.889,0.121-0.808
				c-0.67,0.104-2.553-0.837-2.463-2.544c0.039-0.768,0.08-1.575,1.211-1.535c1.131,0.041,3.393-0.403,3.393-3.634
				c0-3.231-4.119-6.099-7.592-6.099c-3.221,0-8.639,2.04-12,3.008C355.644,56.946,356.294,56.726,356.781,55.998z"/>
			<g>
				<path fill="#5F5D5A" d="M248.791,35.281c0.121-0.444,0.807-0.444,0.686,0.161s-0.281,2.1-0.281,2.545
					c0,0.443,0.402,1.009,0.766,0.363c0.365-0.646,1.535-2.303,3.15-2.303c2.922,0,4.432,2.973,4,5.573
					c-0.553,3.306-0.822,5.978,1.533,5.978c0.646,0,1.332-0.283,1.697-0.646c0.361-0.363,0.727-0.282,0.564,0.687
					c-0.162,0.97-1.494,2.908-3.109,2.908s-3.23-1.616-3.594-2.06c-0.365-0.444-0.889-0.081-0.486,0.646
					c4.381,7.884,13.451,7.106,17.004,4.847c0.443-0.283,0.398-0.562-0.324-0.646c-5.209-0.605-5.816-8.4-0.605-8.844
					c0.459-0.039,0.889,0.201,0.566,0.848c-0.783,1.562,0.113,3.23,2.381,3.23c3.383,0,4.008-4.508,1.334-5.331
					c-0.525-0.161-0.605-0.646-0.242-1.171c1.008-1.455,3.098-1.425,3.916-0.605c0.242,0.242,1.092,0.444,0.93-0.444
					c-0.248-1.37-1.979-3.181-4.604-2.787c-2.424,0.364-4.482,0.809-5.088-0.161c-0.607-0.969-0.203-1.373,0.121-1.857
					c0.322-0.484,0.039-2.141-2.223-2.141c-4.453,0-4.91,3.507-3.916,5.492c0.24,0.485,0.039,1.414-0.768,0.404
					c-2.703-3.379,1.297-9.491,7.471-9.491c5.924,0,12.035,5.284,12.035,13.166c0,7.135-6.562,14.458-16.154,14.458
					c-11.107,0-19.35-12.371-16.881-22.777"/>
				<path fill="#5F5D5A" d="M241.763,35.402c-0.605-0.268-0.727-0.243-0.928,0.323c-0.521,1.453,0.955,3.635,2.463,3.635
					c2.053,0,3.344-1.643,3.916-2.787c0.404-0.808,1.01-2.181,1.414-2.464c0.404-0.282,0.969-0.04,1.131,0.162
					s0.709,0.62,1.332,0.121c1.01-0.808,2.344-2.463,2.586-2.867s0.635-0.393,0.686,0.282c0.125,1.628,1.727,3.213,3.635,2.02
					c0.324-0.202,0.365-0.808-0.242-0.889c-0.605-0.081-1.252-1.817-0.889-2.988c0.531-1.713,2.787-4.647,0.404-6.381
					c-3.037-2.208-6.656,3.534-8.926,7.351C246.57,33.908,245.599,37.099,241.763,35.402z"/>
				<path fill="#5F5D5A" d="M263.531,19.369c6.324-1.135,13.117,0.121,17.043,2.262c0.443,0.242,0.443,0.889-0.404,0.525
					c-4.975-2.133-12.053-3.158-15.951-1.696c-0.646,0.242-0.729,0.605-0.688,1.01c0.041,0.403-0.121,1.332-1.09,1.615
					c-1.182,0.345-2.152-0.345-2.424-0.889c-0.162-0.323-1.271,0.04-1.998,0.949c-0.393,0.49-1.152-0.182-0.789-0.666
					c0.363-0.485,1.455-1.151,1.697-1.272s0.514-0.303,0.393-0.818c-0.121-0.515,0.062-1.938,1.182-2.393
					c1.121-0.454,2.061,0.333,2.363,1.029C263.005,19.35,263.136,19.44,263.531,19.369z"/>
				<path fill="#5F5D5A" d="M257.513,5.073c0.24,0.623,0.525,0.727,0.85,0.242c0.322-0.485,2.098-1.212,2.625-0.162
					c1.205,2.415,1.391,5.896,3.795,5.694c0.484-0.04,1.252-0.282,1.818,0.808c1.072,2.072,5.924,5.278,9.127,6.422
					c10.279,3.671,14.381,8.693,16.961,13.853c0.201,0.403,0.699,0.56,0.363-0.202c-1.332-3.029-4.645-7.432-7.068-10.299
					c-6.148-7.275-2.58-13.73,0.889-13.73c0.9,0,1.559,0.834,1.414,1.413c-0.08,0.323,0.08,0.727,0.727,0.484
					c1.666-0.624,2.197-3.259,1.252-4.361c-0.242-0.282-0.041-0.605,0.607-0.727c1.227-0.23,2.414,0.156,3.027,0.565
					c0.363,0.242,0.404,0.363-0.121,0.565c-0.523,0.201-1.896,1.776-1.736,2.746c0.162,0.969,0.848,0.929,1.576,0.605
					c0.725-0.323,2.988-0.202,2.988,2.302s-3.393,3.231-4.361,3.231c-0.971,0-0.648,0.646,0.039,0.727
					c3.789,0.445,6.744-2.828,6.744-6.3c0-2.867-2.383-7.875-7.996-7.875c-7.723,0-13.277,11.455-5.895,20.313
					c0.402,0.484,0.387,0.94-0.324,0.444c-2.141-1.495-6.26-3.393-8.844-4.442c-2.809-1.141-7.135-3.767-7.594-6.058
					c-0.08-0.404,0.041-0.687,0.85-0.646c1.418,0.071,2.814-1.362,2.18-2.948c-1.127-2.82-0.91-4.442,0.363-4.442
					c0.646,0,0.969,0.202,1.051,0.484c0.08,0.283,0.928,0.485,0.928-0.929c0-2.788-4.879-3.403-6.098-1.373
					c-0.242,0.404-0.646,0.97-1.131,0.242c-0.484-0.727-1.01-1.373-2.02-1.171s-1.303,0.763-1.332,1.373
					c-0.041,0.848-0.889,1.333-1.01,0.242c-0.121-1.09-0.525-1.857-2.221-1.857S256.625,2.771,257.513,5.073z"/>
				<path fill="#5F5D5A" d="M234.898,7.738c1.777,0,3.23,0.929,3.352,1.534c0.121,0.606,0.445,0.525,0.969,0.081
					c1.346-1.138,0.916-3.499,0.041-4.2c-0.404-0.323-0.203-0.605,0.404-0.646c2.307-0.154,4.457,2.146,4.32,4.038
					c-0.039,0.565-0.646,1.615-1.17,1.898c-0.525,0.282-0.324,1.333,0.523,1.171c1.666-0.317,2.09-1.352,2.141-1.656
					c0.082-0.484,0.484-0.564,0.688,0c0.885,2.478,3.867,4.443,6.219,4.443c3.016,0,4.807-2.585,4.807-4.321
					c0-2.303-1.574-4.362-3.918-4.362c-1.623,0-3.029,1.354-3.029,2.948c0,1.454,1.213,2.504,2.342,2.504
					c1.775,0,2.359-1.474,2.141-2.343c-0.08-0.322,0.445-1.009,0.891-0.363c1.16,1.69,0.137,4.847-3.273,4.847
					c-1.252,0-3.352-0.565-4.562-4.321s-4.039-7.794-9.977-7.794c-6.965,0-10.539,7.263-10.539,12.155
					c0,4.022,2.867,6.381,4.039,7.148c0.412,0.271,0.727,0.929-0.041,1.212c-0.768,0.282-1.777,0.969-1.777,2.221
					c0,1.797,1.145,2.699,2.141,2.948c0.484,0.121,0.686-0.161,0.564-0.808s0.365-2.907,3.111-2.907s4.199,0.969,7.148,0.969
					c2.947,0,5.855-1.091,7.592-2.141c2.943-1.779,4.979-1.431,6.744,0.04c0.242,0.202,0.969,0.081,0.324-0.564
					c-0.648-0.646-1.818-1.615-3.838-1.615s-3.514,1.372-4.807,1.816c-2.783,0.957-5.205,1.614-7.914,0.646
					c-0.566-0.202-0.809-0.565,0.039-0.727c3.729-0.711,5.379-5.126,2.787-6.422c-0.484-0.242-0.727,0.081-0.484,0.484
					c0.881,1.468-0.617,2.464-1.574,2.464c-1.373,0-2.143-1.131-2.465-2.665c-0.322-1.535-0.564-2.343-1.695-2.988
					c-1.131-0.646-2.383-1.616-3.189-1.172c-0.809,0.444-1.576,2.585-1.252,3.474c0.322,0.888-0.041,0.888-0.527,0.282
					C229.818,12.08,231.248,7.738,234.898,7.738z"/>
				<path fill="#5F5D5A" d="M290.873,46.468c0.348-0.294,0.484-0.202,0.564,0.242c0.592,3.257,0.176,6.437-1.453,8.764
					c-0.283,0.403,0,0.808,0.484,0.202c0.484-0.606,2.301-3.353,2.301-8.925c0-9.057-5.094-13.332-8.924-13.651
					c-0.486-0.04-0.646,0.404,0,0.566c1.715,0.429,3.512,2.323,3.512,4.765c0,2.141-0.645,3.19-0.645,4.887
					C286.712,46.552,289.445,47.669,290.873,46.468z"/>
				<path fill="#5F5D5A" d="M292.285,57.735c-0.352,0.493-0.039,0.929,0.363,0.524c0.404-0.403,1.334-1.332,2.02-2.463
					c1.455-2.396,3.775-1.528,4.119,0.363c0.082,0.444,0.363,0.484,0.809,0.161c1.471-1.069,0.891-4.725-1.656-4.725
					c-1.535,0-2.545,1.09-3.109,2.06C294.263,54.625,293.294,56.321,292.285,57.735z"/>
				<path fill="#5F5D5A" d="M172.785,9.677c-2.1,0-3.652,0.846-5.008,2.02c-2.1,1.817-6.793,2.901-7.35-1.292
					c-0.443-3.353-0.201-7.714-4.078-7.714c-3.383,0-3.301,4.422-1.695,5.532c0.523,0.363,0.807,0.041,0.564-0.605
					s0.484-2.06,1.775-2.06c1.293,0,2.869,1.05,1.898,4.766c-0.93,3.569-1.793,6.035-0.646,7.471
					c0.324,0.404,0.121,0.687-0.484,0.565c-1.131-0.226-4.562-0.932-4.562-3.352c0-0.444,0.484-0.97,0.848-0.687
					c0.363,0.282,1.172,0.121,1.172-0.849c0-0.969-0.445-1.373-1.293-1.373s-1.736,0.93-1.736,2.706
					c0,2.904,3.035,4.291,5.008,4.523c0.688,0.08,1.049,0.322,1.131,0.808c0.08,0.484,1.291,1.05,2.584,1.211
					c1.293,0.162,1.98-0.161,2.705-0.564c0.729-0.404,1.133-0.202,1.334,0.201c0.201,0.404,0.91,0.663,1.898,0.404
					c1.695-0.444,3.271-2.06,4.523-3.433c3.088-3.389,5.451-1.263,5.451,0.646c0,2.141-1.244,3.102-3.371,4.119
					c-4.18,1.999-7.451,4.544-9.936,6.059c-2.484,1.514-3.15,2.726-5.938,2.726c-2.785,0-4.18-1.757-4.18-3.211
					c0-1.789,1.73-1.582,1.818-0.969c0.041,0.283,0.08,0.848,0.688,0.848c0.9,0,0.979-2.705-0.971-2.705
					c-1.656,0-2.342,1.494-2.342,2.867c0,2.14,1.789,3.917,4.686,3.917c2.059,0,3.23-0.403,4.885-1.696
					c0.416-0.324,0.711-0.216,0.242,0.202c-1.09,0.97-1.535,2.423-2.826,3.514c-1.293,1.091-3.434,2.464-5.412,2.464
					s-2.02,1.857-0.201,1.857c2.787,0,6.035-3.434,7.793-5.977c2.312-3.346,8.768-9.572,17.65-9.572
					c4.773,0,11.023,2.989,13.004,4.645c0.377,0.316,0.848-0.121,0.322-0.646c-0.525-0.524-1.615-0.969-1.535-2.423
					c0.082-1.453-0.686-3.433-4.32-5.008s-4.725-3.069-4.725-5.169c0-2.41,3.189-2.988,4.158-1.858
					c0.242,0.283,0.08,0.768-0.645,0.768c-0.729,0-1.133,0.646-1.133,1.293c0,0.646,0.484,1.413,1.576,1.413
					c1.09,0,1.979-0.808,1.979-2.342c0-1.535-1.455-2.989-3.393-2.989s-3.836,1.898-3.836,3.676c0,1.776,1.293,3.917,3.434,5.048
					c2.139,1.131,3.027,1.938,3.027,2.746s-0.889,1.292-2.221,0.929c-3.42-0.933-6.023-1.208-8.885-0.605
					c-0.768,0.161-0.646-0.323,0-0.687c1.514-0.852,2.826-3.309,2.826-5.291C179.044,12.39,175.296,9.677,172.785,9.677z"/>
				<path fill="#5F5D5A" d="M161.599,50.627c0-0.728,0.717-1.019,0.807-0.04c0.203,2.181,1.426,4.568,2.465,6.502
					c1.17,2.181,3.271,5.977,3.271,8.885c0,3.19-1.973,5.412-5.816,5.412c-3.434,0-3.756-1.414-6.18-1.414
					c-1.514,0-1.83,0.64-2.059,1.212c-0.162,0.403-0.363,0.403-0.809,0.121c-1.338-0.852-0.52-2.972,1.213-3.837
					c0.322-0.161,0.686-0.484,0.121-1.05c-0.566-0.565-1.738-2.1-0.85-3.23c0.891-1.131,3.191-0.606,4.242-0.444
					c3.398,0.522,5.611-1.513,5.611-3.756C163.617,56.523,161.599,53.293,161.599,50.627z"/>
				<path fill="#5F5D5A" d="M310.458,1.317c1.211,0,1.736,0.767,1.736,1.534s-0.363,1.696-1.373,1.696
					c-0.672,0-0.986-0.342-1.131-0.969c-0.09-0.395-0.787-1.151-2.301,0.484c-3.051,3.295-1.766,7.145-0.305,9.057
					c1.182,1.544,3.303,2.877,3.727,3.119s0.332,0.787-0.213,0.454s-3.604-2.453-5.18-2.453c-1.574,0-1.908,0.879-1.938,1.182
					s-0.242,0.515-0.727,0.151c-1.906-1.43-1.203-4.134,0.635-4.302c0.334-0.03,0.818,0.152,0.668-0.394
					C302.925,6.8,306.654,1.317,310.458,1.317z"/>
				<path fill="#5F5D5A" d="M357.628,24.821c0.271,0.428,0.646,0.524,0.324-0.202c-1.121-2.519-4.105-6.669-6.988-8.966
					c-2.383-1.897-7.432-5.613-7.432-8.925c0-4.255,4.49-4.797,5.615-3.392c0.16,0.201-0.121,0.564-0.646,0.403
					c-0.949-0.292-2.061,0.373-2.061,1.776c0,1.414,1.334,2.262,2.182,2.262c1.609,0,2.826-1.245,2.826-3.028
					c0-2.1-2.18-3.918-4.279-3.918c-5.018,0-5.969,6.186-4.404,8.926c0.324,0.565,0.729,1.736-0.201,1.575
					c-3.291-0.572-5.41,1.911-5.41,3.433c0,2.751,2.732,3.603,3.754,3.433c0.484-0.081,0.484-0.484,0.123-0.929
					c-0.605-0.741-0.377-2.706,2.664-2.706C349.564,14.563,353.832,18.845,357.628,24.821z"/>
				<path fill="#5F5D5A" d="M364.089,29.062c0-5.337,5.297-9.37,9.652-7.391c0.445,0.202,0.404,0.929-0.646,0.728
					c-2.941-0.565-4.523,0.996-4.523,2.746c0,2.997,3.674,3.281,3.998,1.332c0.082-0.484,0.365-0.564,0.688-0.161
					c1.189,1.487,0.176,5.896-3.756,5.896c-0.807,0-2.545-0.808-2.787-1.212c-0.242-0.403-0.686-0.08-0.727,0.606
					c-0.039,0.687-0.244,3.756-0.084,5.896c0.258,3.398-1.916,10.602-3.832,12.52c-0.566,0.565-0.688,0.363-0.203-0.524
					c1.844-3.382,2.988-6.675,2.988-11.874C364.857,35.2,364.089,32.696,364.089,29.062z"/>
				<path fill="#5F5D5A" d="M312.236,61.854c5.32,0,7.057-5.351,7.057-8.692c0-2.64-2.039-5.61-3.271-7.088
					c-0.303-0.363-0.027-0.731,0.486-0.242c2.23,2.13,3.766,5.136,3.766,7.582c0,3.251-1.465,6.401-2.799,7.622
					c-0.361,0.334-0.24,0.637,0.092,0.909c0.334,0.272,1.455,1.908,1.455,3.423c0,1.931-2.357,4.274-5.898,3.958
					c-4.676-0.419-6.965,0.903-6.623,3.312c0.082,0.564-0.039,1.131-0.686,1.131s-1.373-1.374-1.373-2.706
					c0-2.499,2.498-4.334,4.16-4.928c0.564-0.201,0.605-0.605-0.121-0.646c-2.471-0.138-5.613-2.454-5.613-5.896
					c0-3.891,2.771-6.018,5.33-6.018c1.623,0,2.973,1.07,3.352,1.979c0.201,0.484-0.322,0.646-0.645,0.121
					c-0.904-1.466-4.16-1.368-4.16,1.817C306.744,59.27,308.238,61.854,312.236,61.854z"/>
			</g>
		</g>
	</g>
</g>
</svg>
