<?xml version="1.0" encoding="utf-8"?>
<!-- Generator: Adobe Illustrator 16.0.0, SVG Export Plug-In . SVG Version: 6.00 Build 0)  -->
<!DOCTYPE svg PUBLIC "-//W3C//DTD SVG 1.1//EN" "http://www.w3.org/Graphics/SVG/1.1/DTD/svg11.dtd">
<svg version="1.1" id="Layer_1" xmlns="http://www.w3.org/2000/svg" xmlns:xlink="http://www.w3.org/1999/xlink" x="0px" y="0px"
	 width="376.5px" height="50.25px" viewBox="0 0 376.5 50.25" enable-background="new 0 0 376.5 50.25" xml:space="preserve">
<g>
	<path fill="#63605D" d="M193.861,5.264c-2.599-1.299-4.485-2.767-5.178-4.027L188.002,0l-0.68,1.237
		c-0.693,1.26-2.581,2.728-5.179,4.027l0,0c-0.382,0.191-0.539,0.658-0.347,1.042s0.659,0.539,1.042,0.347l0,0
		c1.688-0.844,4.692-2.573,5.845-4.667h-1.36c1.151,2.094,4.155,3.823,5.844,4.667l0,0c0.383,0.192,0.85,0.037,1.041-0.347
		S194.245,5.455,193.861,5.264L193.861,5.264z"/>
	<path fill="#999390" d="M22.459,12.22c-0.725,0.931-1.76,2.173-3.726,1.966s-5.012-0.962-7.4,0.233
		c-0.621,0.311-0.777,0.699-0.388,1.475c0.388,0.776-0.078,1.63,0.465,2.639c0.725,1.346,2.769,3.597,3.804,3.804
		c0.776,0.155,0.39,0.6-0.311,0.543c-1.94-0.155-5.666,0.932-6.831,1.786c-1.165,0.854-2.096,2.173-2.329,2.872
		c-0.232,0.699,0,1.087,1.088,1.397c1.086,0.31,1.708,1.475,2.173,2.484c0.671,1.455,2.434,2.038,3.726,1.319
		c0.699-0.389,0.855,0.078,0.311,0.388c-1.603,0.916-2.771,4.647-2.639,5.434c0.151,0.905,1.138,1.448,2.174,1.241
		c0.389-0.076,0.31,0.622,0,1.165c-1.123,1.966-3.379,3.804-5.822,3.804c-3.111,0-5.511-3.804-2.484-6.366
		c0.379-0.319-0.155-0.465-0.465-0.154c-2.951,2.949-2.019,9.936,6.597,9.936c8.811,0,9.173-7.53,9.548-11.566
		c3.247,6.625,8.681,12.265,19.483,12.265c5.666,0,8.849-2.795,10.79-3.959c1.941-1.165,5.434-2.174,6.52-2.02
		c1.087,0.156,2.096-0.31,0.621-1.318c-2.701-1.849-8.941-0.843-10.4,1.785c0-2.174-1.397-2.794-2.174-3.183
		c-0.775-0.389-1.553-0.932-2.173-1.319c-0.621-0.388-0.776,0.155-0.388,0.699c0.388,0.543,0.543,1.164,0.232,1.939
		c-0.311,0.776-1.087,1.32-1.087,2.406c0,1.087-0.31,1.553-2.173,1.94c-8.72,1.816-16.535-4.921-16.535-11.798
		c0-1.01,0.389-0.776,0.622,0c0.233,0.776,1.396,2.717,3.259,3.337c1.863,0.621,4.114,1.087,5.123,1.63
		c1.01,0.544,1.63-0.078,0.622-1.63c-2.081-3.2-5.113-6.192-4.425-10.323c0.233-1.397,0.621-3.183-0.776-3.183
		c-1.396,0-4.967-3.338-0.775-8.771L22.459,12.22z"/>
	<path fill="#C7C2BF" d="M98.116,12.582c8.664,3.918,11.586,7.984,9.004,11.488c-1.312-2.989-5.589-2.324-5.589,0.725
		c0,1.242,1.449,2.691,3.312,2.691s5.381-0.725,5.381-5.382s-3.622-6.727-5.899-7.969s-6.003-3.105-6.727-4.14
		c-0.311,3.519-3.623,6.417-7.452,6.417c-3.829,0-5.899-1.759-6.107-2.691c-0.207-0.931,0.311-1.346,0.725-1.759
		c0.414-0.414,0-2.07-1.449-2.07c-1.449,0-2.173,1.139-2.173,3.312c0,3.553,7.003,5.382,8.797,5.382
		C92.836,18.584,96.977,15.894,98.116,12.582z"/>
	<path fill="#999390" d="M156.798,38.016c7.685-1.475,9.858-9.159,6.909-14.67c0.466-0.207,1.708-0.906,2.639-1.63
		c5.174,9.055-1.785,19.018-11.177,20.027L156.798,38.016z"/>
	<path fill="#999390" d="M167.976,26.528c2.87-1.173,5.745,1.397,4.581,4.037c-0.382,0.863-0.932,0.388-0.777-0.233
		c0.156-0.621-0.388-2.717-3.647-1.63C168.131,28.003,168.054,26.993,167.976,26.528z"/>
	<path fill="#0B0D11" d="M29.6,4.509l1.242,0.828l3.83,2.587l6.935,2.174l4.243,3.829l0.621,3.208l2.691,8.279l-8.487,5.589
		c-0.31-1.76-2.276-7.762-3.312-9.21c-1.035-1.449-12.937-11.489-15.524-12.834C19.25,7.614,29.6,4.509,29.6,4.509z"/>
	<g>
		<path fill="#C7C2BF" d="M174.185,20.706c0.7,1.863,3.028,9.004,4.502,12.032c1.793,3.681,4.78,6.954,7.763,8.073
			c1.241,0.466,1.005-0.479,0.077-1.165c-1.785-1.318-4.89-5.2-5.822-8.383c-0.931-3.182-3.415-8.849-3.958-10.246"/>
		<path fill="#C7C2BF" d="M134.209,6.734c13.119-8.693,32.757-6.132,39.821,8.073c-0.854,0.854-1.863,0.854-2.95,0.699
			c-3.882-6.133-11.964-13.287-24.917-9.858c-2.639,0.698-7.219,2.717-10.635,5.045L134.209,6.734z"/>
	</g>
	<path fill="#C7C2BF" d="M9.393,5.026C2.794,5.026,0,8.908,0,11.702c0,2.407,1.165,3.571,2.406,3.571
		c1.242,0,1.708-1.785,1.242-3.726c-0.465-1.94,1.631-5.045,6.209-5.045L9.393,5.026z"/>
	<path fill="#0B0D11" d="M75.372,39.646c-4.967-1.009-11.954-3.648-17.775-8.305l-2.251,2.251c4.968,3.804,9.936,6.054,13.895,6.987
		C71.491,39.879,74.285,39.725,75.372,39.646z"/>
	<path fill="#C7C2BF" d="M64.66,19.464c0.65-6.388,0.101-12.397-1.863-14.36c-0.775-0.776,0.854-0.465,1.942-0.311
		c3.726,0.532,4.811,4.953,4.269,8.616c2.957-0.796,5.4,0.305,6.753,1.32c0.621,0.466-0.233,0.621-1.243,0.854
		c-3.076,0.71-8.153,4.983-6.752,12.42L64.66,19.464z"/>
	<path fill="#C7C2BF" d="M170.77,38.792c-1.385,6.729,4.75,9.65,9.16,6.676c-1.243-1.396-2.407-3.881-1.476-7.452
		C175.506,39.181,172.866,39.258,170.77,38.792z"/>
	<path fill="none" d="M171.081,15.506"/>
	<path fill="#0B0D11" d="M23.771,13.133c-5.406,5.597-6.895,13.548-4.425,23.633l0,0c0.081,0.333,0.418,0.537,0.751,0.456
		c0.332-0.082,0.537-0.418,0.456-0.751l0,0c-2.395-9.779-1.05-17.13,4.113-22.474l0,0c0.237-0.247,0.232-0.64-0.016-0.878
		C24.403,12.88,24.011,12.887,23.771,13.133L23.771,13.133z"/>
	<g>
		<path fill="none" d="M16.517,15.661c1.552,0.466,4.191,0.311,6.287-1.164"/>
		<path fill="none" d="M16.827,17.524c1.708,0.077,2.794,0.233,4.425-0.932"/>
		<path fill="none" d="M16.671,19.231c1.009,0,2.873,0.078,3.648-0.699"/>
		<path fill="none" d="M12.558,26.063c1.63,0.155,4.346-0.234,5.977-2.795"/>
		<path fill="none" d="M14.109,28.314c0.855-0.079,1.475-0.233,1.864-0.544"/>
		<path fill="none" d="M17.215,26.838c0.699-0.543,0.854-1.164,1.32-2.096"/>
		<path fill="none" d="M16.749,33.591c1.01-1.087,1.32-2.406,1.708-4.192"/>
		<path fill="none" d="M16.517,36.774c1.009-1.165,1.941-2.251,2.173-4.114"/>
		<path fill="none" d="M16.594,38.715c1.241-1.32,2.096-2.019,2.406-4.036"/>
		<path fill="none" d="M16.284,41.121c1.863-1.087,2.328-1.63,3.027-3.959"/>
		<path fill="none" d="M14.109,44.691c2.485-1.319,3.726-1.707,4.969-4.657"/>
		<path fill="none" d="M21.329,27.847c-0.465-0.698-0.776-1.319-1.009-1.784"/>
		<path fill="none" d="M22.881,26.838c-1.475-1.009-2.28-3.114-1.475-5.977"/>
		<path fill="none" d="M23.968,25.286c-0.931-1.086-2.794-2.872-2.251-5.899"/>
		<path fill="none" d="M25.288,23.889c-1.786-0.932-4.813-4.424-0.621-9.47"/>
	</g>
	<path fill="#999390" d="M32.502,6.812c9.32-3.917,25.966-3.715,32.236,12.963c0,1.552,0.154,5.201,0.388,6.521
		C59.925,10.848,48.876,4.639,36.147,8.856"/>
	<path fill="#C7C2BF" d="M57.907,31.806c0.954-0.636,2.916-3.999,1.087-7.995c-3.338-7.296-3.308-12.223,0.311-13.429
		c0.931-0.311,0.536-0.877-0.699-1.397c-1.475-0.621-4.89,0.078-6.986,3.959c-1.969,3.646-1.136,7.247,0,8.383
		c0.543,0.543,0.077,1.009-0.233,0.311c-0.311-0.699-1.086-3.648-3.959-4.114c-2.872-0.466-3.881,0.872-5.044,1.475
		c-1.165,0.603-1.01,1.785-0.155,2.329c0.853,0.543,1.396,1.552,1.164,2.717c-0.456,2.276,0.455,4.683,2.018,4.967
		c0.853,0.156,0.704,0.824,0.233,0.466c-2.251-1.708-5.017-2.114-8.073-0.233c-2.324,1.432-3.937,5.944-2.096,9.626
		c0.311,0.621,0.854,0.155,1.009-0.932c0.156-1.087,2.64-3.027,5.045-2.484c4.359,0.983,10.261,3.388,12.964,0.932
		c0.854-0.776,1.862-2.716,2.095-3.338C56.82,32.427,57.674,31.961,57.907,31.806z"/>
	<g>
		<path fill="none" d="M46.186,23.19c-1.087-0.155-2.407-0.311-3.182-1.086"/>
		<path fill="none" d="M47.195,24.587c-1.708-0.078-3.027,0.155-3.803-0.543"/>
		<path fill="none" d="M48.205,26.063c-1.631,0-4.502,0.155-4.891-0.389"/>
		<path fill="none" d="M44.944,31.418c-1.475,0.388-4.58,0.775-5.977,2.018c-1.397,1.243-2.329,3.26-2.406,3.882"/>
		<path fill="none" d="M46.806,32.117c-2.483,0.931-5.355,0.854-7.529,3.416"/>
		<path fill="none" d="M52.861,30.797c-2.096,1.009-4.114,2.019-6.598,2.873c-2.483,0.854-4.035,1.241-4.735,1.785"/>
		<path fill="none" d="M52.163,33.126c-1.863,0.775-3.183,1.242-4.891,1.629c-1.708,0.388-2.484,0.777-3.183,1.166"/>
		<path fill="none" d="M48.205,31.107c0.931-0.077,2.018-0.232,2.483-0.388"/>
		<path fill="none" d="M49.601,29.478c1.087-0.155,2.562-0.233,3.416-0.155"/>
		<path fill="none" d="M54.803,32.971c-1.398,1.94-3.338,2.561-5.202,2.871s-3.027,0.854-3.027,0.854"/>
		<path fill="none" d="M55.345,34.212c-1.242,1.32-2.251,1.863-4.192,2.484c-1.94,0.622-3.104,0.31-3.104,0.31"/>
		<path fill="none" d="M48.281,27.227c-0.465,0.078-1.475,0.078-2.019,0"/>
		<path fill="none" d="M57.363,23.966c0.932,1.863,1.942,4.502,0.544,7.84"/>
	</g>
	<path fill="none" d="M76.924,39.336"/>
	<path fill="#999390" d="M76.924,39.336C71.18,35.921,64.66,32.117,64.66,19.464c0-11.721,10.014-16.611,18.32-16.534
		c4.734,0.044,13.04,2.717,16.921,2.717c3.882,0,8.305-1.242,10.169-1.708c2.923-0.731,6.442,0.136,7.917,1.242
		c0.621,0.465,0.389,0.543-0.621,0.543c-1.009,0-3.415-0.078-5.356,1.319c-1.947,1.401-2.297,2.895-5.511,2.251
		c1.009,0.311,1.165,1.087,1.629,1.32c0.467,0.233,0.029,0.445-0.543,0.698c-2.095,0.932-5.201,3.183-9.625,0
		c6.287,4.968,0.805,10.911-0.388,10.712c-0.932-0.155-0.466-1.165-0.466-1.165c-0.621,6.598-5.395,12.63-12.109,10.712
		c-1.086-0.311-0.465-0.699,0.543-1.009c4.502-1.386,8.15-7.024,8.15-11.566c0-5.278-4.243-12.73-13.04-12.73
		c-9.083,0-13.274,9.703-13.274,15.292c0,9.777,6.779,15.451,16.378,18.165C80.805,39.181,77.701,39.258,76.924,39.336z"/>
	<path fill="none" d="M45.915,44.691c-1.708,2.251-5.511,4.425-11.798,3.183c-6.288-1.241-11.877-6.132-13.429-9.78"/>
	<circle fill="#C7C2BF" cx="11.023" cy="5.26" r="1.757"/>
	<circle fill="#C7C2BF" cx="47.738" cy="15.505" r="2.415"/>
	<circle fill="#C7C2BF" cx="41.218" cy="16.747" r="2.854"/>
	<circle fill="#C7C2BF" cx="43.779" cy="11.469" r="2.305"/>
	<circle fill="#C7C2BF" cx="39.588" cy="23.889" r="2.415"/>
	<circle fill="#C7C2BF" cx="35.862" cy="19.231" r="2.525"/>
	<circle fill="#C7C2BF" cx="36.638" cy="13.798" r="2.635"/>
	<circle fill="#C7C2BF" cx="38.812" cy="8.519" r="2.744"/>
	<circle fill="#C7C2BF" cx="34.931" cy="9.373" r="1.427"/>
	<circle fill="#C7C2BF" cx="32.602" cy="6.501" r="1.866"/>
	<circle fill="#C7C2BF" cx="31.825" cy="11.081" r="2.415"/>
	<circle fill="#C7C2BF" cx="31.438" cy="15.894" r="2.415"/>
	<circle fill="#C7C2BF" cx="27.246" cy="12.789" r="2.086"/>
	<circle fill="#C7C2BF" cx="23.831" cy="10.693" r="2.196"/>
	<circle fill="#C7C2BF" cx="27.478" cy="8.675" r="2.415"/>
	<circle fill="#C7C2BF" cx="27.711" cy="4.793" r="1.866"/>
	<circle fill="#C7C2BF" cx="24.141" cy="4.25" r="1.098"/>
	<circle fill="#C7C2BF" cx="23.288" cy="6.734" r="2.195"/>
	<circle fill="#C7C2BF" cx="19.793" cy="8.054" r="1.976"/>
	<circle fill="#C7C2BF" cx="19.949" cy="4.172" r="1.537"/>
	<circle fill="#C7C2BF" cx="17.077" cy="5.647" r="1.976"/>
	<circle fill="#C7C2BF" cx="14.283" cy="6.579" r="1.647"/>
	<circle fill="#C7C2BF" cx="14.283" cy="4.017" r="1.427"/>
	<path fill="#999390" d="M165.337,11.081c0,4.01,2.846,7.607,6.598,7.607c4.913,0,6.364-4.347,5.667-7.762
		c-0.348-1.698-2.329-1.184-2.329,0.078c0,2.484-1.165,4.657-3.105,4.657c-2.381,0-3.881-2.277-3.881-4.812
		c0-2.484,1.94-5.511,5.821-5.511c5.435,0,10.868,6.598,10.868,13.506c0,8.693-4.45,17.078-12.109,17.078
		c-4.967,0-6.986-4.658-7.375-7.142c-0.197-1.265-1.396,0.078-1.552,1.009c-1.439,8.637,8.374,10.77,14.515,8.228
		c-1.271,2.967,0.133,8.626,5.666,9.548c0.932,0.155,1.708-0.155,1.165-0.543c-2.245-1.604-4.661-5.045-1.708-11.798
		c1.63-3.727,4.425-9.47,4.425-14.594c0-9.961-6.003-18.086-13.429-18.086c-3.958,0-7.141,2.173-8.539,4.191
		c-1.854,2.678-4.175,4.257-6.054,3.881c-0.776-0.155-0.469,0.08-0.155,0.466C160.834,12.323,163.36,13.717,165.337,11.081z"/>
	<path fill="#999390" d="M145.155,14.003c0,0,0.853-2.562,3.803-3.027c1.612-0.254,4.115-1.785,4.502-2.483
		c0.388-0.699,1.242-1.165,1.397-0.078c0.155,1.086,0.388,6.132-3.26,8.849C151.598,17.263,144.693,21.408,145.155,14.003z"/>
	<path fill="#999390" d="M150.847,34.677c0.57,0.775,3.726,0.518,4.528,0.465c0.802-0.051,2.51,0.104,3.261,0.259
		c0.75,0.156,0.439-0.129,0.154-0.646c-1.054-1.918-1.558-3.386-6.572-5.615l-8.39-0.837L150.847,34.677z"/>
	<path fill="#999390" d="M134.909,36.824c-1.243,2.483-1.243,6.132-0.7,7.529s0.543,2.018,0.389,2.639
		c-0.155,0.621,0.237,0.943,1.009,0.621c1.863-0.776,3.804-0.854,4.269-3.803c0.466-2.95-1.242-5.666,0.699-8.85L134.909,36.824z"/>
	<path fill="#999390" d="M122.411,23.55c-1.332-0.342-5.743,3.648-6.364,4.115c-0.622,0.466-1.087,0.854-1.631,0.931
		c-0.543,0.078-0.388,0.699,0.388,1.009c0.776,0.311,5.899,1.941,9.781-0.776C124.585,28.829,130.741,25.694,122.411,23.55z"/>
	<path fill="#999390" d="M125.316,3.917c0,0-1.788,5.617,1.021,6.639c2.809,1.021,2.809,1.021,2.809,1.021s0.127-2.809,1.277-4.468
		C130.423,7.109,127.741,8.13,125.316,3.917z"/>
	<path fill="none" d="M153.228,10.898c-1.553,1.086-3.027,1.164-4.347,2.562"/>
	<path fill="none" d="M136.384,44.819c1.086-1.863,1.241-3.57,1.474-5.278c0.233-1.708,0.621-2.639,1.165-3.493"/>
	<g>
		<path fill="#F9F9F9" d="M112.932,11.45c0,0,4.084,2.372,7.021,0.483c2.938-1.888,13.024-3.803,15.449,10.241
			c0,0-4.528,7.07-15.192,3.703c-2.426-0.766-6.128-4.468-6.128-4.468s-0.511-3.064,5.107-3.831
			C119.188,17.578,113.698,17.705,112.932,11.45z"/>
		<path fill="#F9F9F9" d="M135.402,22.174c0,0-22.073,4.216-15.321,9.704c10.214,8.298-0.766,15.958,12.257,11.618
			c0,0,7.532-4.086,8.043-11.363C140.892,24.855,136.934,22.812,135.402,22.174z"/>
		<path fill="#F9F9F9" d="M135.402,22.174c0,0,0.894,12.384,3.958,18.002c3.063,5.617,7.532,5.234,6.638,9.447
			c0,0,4.724-2.809,4.596-6.639c0,0,1.021,1.531,5.49,1.787c0,0,1.404-2.681-1.404-4.852c0,0,3.447-0.638,3.83-2.426
			c0,0-2.809,1.149-11.363-7.661c0,0,11.49,4.213,14.043-1.787c2.554-6,4.214-5.873,6.256-5.235c0,0-2.553-4.085-6.383-2.553
			c0,0,3.447-2.809,2.17-6.767c0,0-1.277,1.915-6.767-0.128C150.978,11.322,138.21,19.493,135.402,22.174z"/>
		<path fill="#F9F9F9" d="M136.934,22.302c0.174,0.364,12.719,1.407,12.001-11.873c-0.255-4.724-3.83-3.958-8.043-7.022
			C140.892,3.406,131.317,10.556,136.934,22.302z"/>
		<path fill="#F9F9F9" d="M136.934,22.302c0,0,11.746-10.98-4.979-17.491C131.955,4.811,123.273,13.748,136.934,22.302z"/>
	</g>
	<g>
		<path fill="none" d="M156.798,21.299c-3.337-0.854-6.752-0.31-10.09,2.95"/>
		<path fill="none" d="M157.108,23.628c-1.63-2.096-4.191-3.027-7.762-1.475"/>
		<path fill="none" d="M155.245,24.249c-1.785-2.018-4.967-2.406-7.296-1.009"/>
		<path fill="none" d="M154.004,25.336c-2.019-1.708-4.425-2.484-7.064-1.165"/>
		<path fill="none" d="M152.374,26.579c-2.174-1.32-3.648-3.261-6.753-1.01"/>
		<path fill="none" d="M152.529,28.441c-0.854-0.466-2.329-1.319-2.717-1.63"/>
		<path fill="none" d="M148.726,26.5c-0.776-0.232-2.018-0.543-3.726,0.155"/>
		<path fill="none" d="M150.511,29.062c-1.864-1.087-3.648-1.553-5.899-1.243"/>
		<path fill="none" d="M148.57,30.071c-1.475-1.243-2.329-1.553-4.657-1.243"/>
		<path fill="none" d="M148.493,33.952c-1.087-2.406-3.26-4.657-5.744-4.424"/>
		<path fill="none" d="M147.25,32.865c-1.88-2.256-4.17-3.444-6.209-1.085"/>
		<path fill="none" d="M144.364,34.72c0.078,0.699-0.078,1.708-0.62,2.561"/>
		<path fill="none" d="M145.761,34.124c0.621,1.397,0.465,2.716-0.078,3.881"/>
		<path fill="none" d="M147.378,33.353c0.543,1.164,0.31,2.872,0.078,3.88"/>
	</g>
	<g>
		<path fill="none" d="M145.854,5.62c-1.397-0.156-2.406,1.164-2.795,2.173c-0.389,1.01-1.32,2.717-2.872,2.639"/>
		<path fill="none" d="M141.566,10.462c0.776,1.319,1.552,2.561,1.474,3.881"/>
		<path fill="none" d="M144.43,12.456c0.155-1.708-1.009-2.872-1.863-3.493"/>
		<path fill="none" d="M145.981,10.515c-0.232-1.553-0.62-3.105-2.328-3.338"/>
	</g>
	<path fill="none" d="M133.286,12.65c-0.621,1.242-0.543,2.639-0.157,4.735"/>
	<g>
		<path fill="none" d="M123.033,17.03c1.319,1.63,3.958,3.648,7.142,3.493"/>
		<path fill="none" d="M122.178,19.281c1.941,1.165,3.106,1.94,6.598,1.242"/>
		<path fill="none" d="M125.205,16.487c1.708,2.329,3.338,3.726,5.589,3.337"/>
		<path fill="none" d="M127.301,16.099c0.931,2.173,2.329,3.726,3.804,3.416"/>
		<path fill="none" d="M129.708,16.41c0.854,1.552,0.854,2.096,1.786,2.251"/>
		<path fill="none" d="M122.178,21.377c0.389,0.31,1.087,0.621,1.553,0.698"/>
	</g>
	<g>
		<path fill="none" d="M125.853,26.371c-1.242,1.76-3.519,4.036-3.104,7.348"/>
		<path fill="none" d="M127.095,27.924c-1.242,1.655-2.508,2.381-2.38,4.553c0.103,1.76,0.517,3.416,1.138,4.657"/>
		<path fill="none" d="M130.717,32.788c-0.517,3-0.931,4.036-0.104,6.106"/>
		<path fill="none" d="M132.477,35.789c0,1.242,0.208,2.277,0.518,3.106"/>
		<path fill="none" d="M136.823,31.028c0.414,1.76-0.414,4.45-0.931,5.692"/>
		<path fill="none" d="M134.546,31.339c0.207,0.932,0.104,3.622-0.104,4.761"/>
		<path fill="none" d="M128.44,28.958c-0.932,1.345-1.76,5.072-0.414,8.072"/>
	</g>
	<path fill="#0B0D11" d="M132.968,21.843c-1.165,0.888-1.786,3.648,0,3.26c3.529-0.768,5.552,1.439,4.58,4.114
		c-0.311,0.854-0.834,2.902,1.552,2.329c3.881-0.932,5.123-6.598,2.329-9.159C138.635,19.825,135.918,19.592,132.968,21.843z"/>
	<g>
		<circle fill="#999390" cx="131.444" cy="20.003" r="2.195"/>
		<circle fill="#999390" cx="137.317" cy="17.705" r="2.196"/>
		<circle fill="#999390" cx="143.445" cy="20.259" r="2.635"/>
		<circle fill="#999390" cx="146.127" cy="26.515" r="2.635"/>
		<circle fill="#999390" cx="128.543" cy="25.905" r="2.342"/>
		<circle fill="#999390" cx="133.304" cy="33.771" r="2.196"/>
		<circle fill="#999390" cx="143.528" cy="31.974" r="2.196"/>
		<circle fill="#999390" cx="138.677" cy="34.399" r="2.196"/>
	</g>
	<path fill="#63605D" d="M120.624,34.877c4.658-2.276,10.093-5.866,10.714-7.315c0.621-1.45,2.587-3.83,5.278-1.967
		c2.691,1.863,0.724,5.072-0.932,5.279c-1.655,0.207-3.312,0.725-5.278,2.38c-1.967,1.656-7.424,5.008-9.08,5.422
		C121.241,37.388,121.422,35.962,120.624,34.877z"/>
	<path fill="#63605D" d="M81.582,20.706c2.483,0,4.347,1.863,4.347,4.192c0,2.329-2.33,3.019-3.494,3.027
		c-3.467,0.026-2.718-5.175,0.233-4.191c0.911,0.304,0.336-0.233-0.129-0.336c-2.397-0.533-5.02,2.275-5.02,5.123
		c0,3.001,1.5,8.176,10.349,8.176c8.848,0,16.249-5.744,24.839-5.744c2.583,0,8.642,1.414,8.642,6.831
		c0,5.02-6.391,10.323-16.637,10.323c-18.56,0-35.801-10.271-45.332-1.474c4.765-5.461,12.27-8.676,24.347-6.935
		C69.649,33.143,74.686,20.706,81.582,20.706z"/>
	<g>
		<path fill="#0B0D11" d="M79.625,42.999c4.767,0.644,13.709,2.008,17.761,2.891c9.049,1.97,17.944,0.224,21.632-4.246
			c1.761-2.133,2.103-4.629,0.991-7.218l0,0c-0.111-0.259-0.411-0.379-0.67-0.268c-0.26,0.111-0.379,0.412-0.269,0.671l0,0
			c0.952,2.214,0.661,4.346-0.84,6.166c-3.399,4.12-12.074,5.759-20.627,3.896c-4.079-0.888-13.058-2.258-17.841-2.904l0,0
			c-0.28-0.038-0.538,0.159-0.575,0.438C79.15,42.703,79.345,42.96,79.625,42.999L79.625,42.999z"/>
		<path fill="#0B0D11" d="M98.539,44.857c5.521,1.038,15.492,0.613,19.364-3.596c1.515-1.647,1.953-3.683,1.301-6.046l0,0
			c-0.075-0.272-0.356-0.432-0.628-0.356s-0.432,0.356-0.356,0.627l0,0c0.552,2.003,0.193,3.713-1.068,5.083
			c-3.453,3.755-12.918,4.319-18.423,3.284l0,0c-0.278-0.053-0.545,0.131-0.597,0.407C98.079,44.538,98.261,44.805,98.539,44.857
			L98.539,44.857z"/>
		<path fill="#0B0D11" d="M83.711,40.09c4.717,1.154,11.562,0.262,12.889-0.461l0,0c0.248-0.135,0.339-0.445,0.204-0.693
			c-0.135-0.248-0.446-0.339-0.693-0.204l0,0c-0.99,0.541-7.606,1.479-12.157,0.367l0,0c-0.273-0.067-0.55,0.101-0.617,0.374
			C83.27,39.747,83.437,40.023,83.711,40.09L83.711,40.09z"/>
		<path fill="#0B0D11" d="M90.894,40.431c6.699,4.555,10.689,1.543,14.548-1.371l0.535-0.402c0.225-0.169,0.27-0.488,0.102-0.714
			c-0.169-0.225-0.489-0.271-0.714-0.103l-0.603,0.448c-1.687,1.249-2.705,2.003-1.91,3.328c0.311,0.519,0.884,0.814,1.703,0.879
			c2.391,0.189,6.564-1.698,7.82-3.193c1.349-1.605,2.156-1.811,2.441-1.825c0.167-0.008,0.224,0.042,0.224,0.042
			c-0.002-0.002-0.013-0.017-0.021-0.04c0.059,0.175,0.03,0.262-0.01,0.329c-0.193,0.33-1.035,0.838-3.948,1.389l0,0
			c-0.277,0.052-0.458,0.319-0.406,0.597c0.053,0.277,0.319,0.459,0.596,0.406l0,0c2.827-0.534,4.17-1.077,4.639-1.874
			c0.207-0.351,0.24-0.745,0.098-1.169c-0.113-0.338-0.438-0.597-0.847-0.675c-0.682-0.129-1.848,0.141-3.547,2.165
			c-1.077,1.281-4.926,2.993-6.957,2.832c-0.324-0.026-0.744-0.114-0.908-0.386c-0.283-0.472-0.099-0.694,1.642-1.983l0.607-0.451
			c-0.226,0.168-0.546,0.122-0.714-0.104c-0.169-0.226-0.124-0.544,0.101-0.713l-0.537,0.405c-3.899,2.943-7.266,5.484-13.358,1.341
			l0,0c-0.233-0.159-0.551-0.099-0.71,0.135C90.6,39.954,90.661,40.272,90.894,40.431L90.894,40.431z"/>
	</g>
	<path fill="#63605D" d="M174.574,18.222c0.388,1.009,0.776,2.639,0.699,3.804c0.388,0.543,2.018,1.242,2.872,1.319
		c2.484,0.226,4.424-1.778,4.657-3.648c0.078-0.621,0.155-1.32-0.621-0.699c-2.709,2.167-4.858,0.931-6.608-1.545L174.574,18.222"/>
	<path fill="#63605D" d="M172.322,18.766c0.699,1.785,0,4.812-0.931,5.278c-0.931,0.465-0.388,0.776,0.388,0.854
		c0.777,0.078,4.658-0.699,2.795-6.676C173.953,18.377,173.1,18.766,172.322,18.766z"/>
	<path fill="#999390" d="M353.645,12.22c0.725,0.931,1.759,2.173,3.725,1.966c1.967-0.207,5.012-0.962,7.4,0.233
		c0.621,0.311,0.776,0.699,0.389,1.475c-0.389,0.776,0.078,1.63-0.466,2.639c-0.725,1.346-2.769,3.597-3.804,3.804
		c-0.776,0.155-0.39,0.6,0.311,0.543c1.94-0.155,5.667,0.932,6.831,1.786s2.096,2.173,2.328,2.872c0.233,0.699,0,1.087-1.086,1.397
		c-1.087,0.31-1.708,1.475-2.174,2.484c-0.672,1.455-2.434,2.038-3.726,1.319c-0.699-0.389-0.854,0.078-0.311,0.388
		c1.603,0.916,2.771,4.647,2.639,5.434c-0.151,0.905-1.138,1.448-2.174,1.241c-0.388-0.076-0.31,0.622,0,1.165
		c1.124,1.966,3.38,3.804,5.823,3.804c3.11,0,5.51-3.804,2.483-6.366c-0.38-0.319,0.155-0.465,0.466-0.154
		c2.949,2.949,2.018,9.936-6.599,9.936c-8.81,0-9.172-7.53-9.547-11.566c-3.248,6.625-8.682,12.265-19.483,12.265
		c-5.667,0-8.85-2.795-10.79-3.959c-1.94-1.165-5.433-2.174-6.521-2.02c-1.087,0.156-2.096-0.31-0.62-1.318
		c2.701-1.849,8.941-0.843,10.401,1.785c0-2.174,1.397-2.794,2.173-3.183s1.552-0.932,2.173-1.319s0.777,0.155,0.389,0.699
		c-0.389,0.543-0.543,1.164-0.232,1.939c0.311,0.776,1.086,1.32,1.086,2.406c0,1.087,0.312,1.553,2.174,1.94
		c8.72,1.816,16.534-4.921,16.534-11.798c0-1.01-0.389-0.776-0.621,0c-0.233,0.776-1.397,2.717-3.261,3.337s-4.114,1.087-5.123,1.63
		c-1.01,0.544-1.631-0.078-0.621-1.63c2.081-3.2,5.113-6.192,4.425-10.323c-0.232-1.397-0.621-3.183,0.776-3.183
		s4.968-3.338,0.776-8.771L353.645,12.22z"/>
	<path fill="#C7C2BF" d="M277.988,12.582c-8.665,3.918-11.587,7.984-9.005,11.488c1.312-2.989,5.589-2.324,5.589,0.725
		c0,1.242-1.449,2.691-3.312,2.691c-1.863,0-5.382-0.725-5.382-5.382s3.622-6.727,5.899-7.969c2.276-1.242,6.002-3.105,6.728-4.14
		c0.31,3.519,3.622,6.417,7.45,6.417c3.831,0,5.9-1.759,6.107-2.691c0.207-0.931-0.311-1.346-0.725-1.759
		c-0.414-0.414,0-2.07,1.449-2.07c1.448,0,2.173,1.139,2.173,3.312c0,3.553-7.003,5.382-8.797,5.382
		C283.267,18.584,279.126,15.894,277.988,12.582z"/>
	<path fill="#999390" d="M219.305,38.016c-7.684-1.475-9.857-9.159-6.908-14.67c-0.466-0.207-1.708-0.906-2.639-1.63
		c-5.175,9.055,1.784,19.018,11.178,20.027L219.305,38.016z"/>
	<path fill="#999390" d="M208.127,26.528c-2.868-1.173-5.743,1.397-4.579,4.037c0.38,0.863,0.931,0.388,0.776-0.233
		c-0.155-0.621,0.388-2.717,3.647-1.63C207.972,28.003,208.05,26.993,208.127,26.528z"/>
	<path fill="#0B0D11" d="M346.503,4.509l-1.241,0.828l-3.83,2.587l-6.935,2.174l-4.243,3.829l-0.621,3.208l-2.691,8.279l8.487,5.589
		c0.311-1.76,2.277-7.762,3.312-9.21c1.035-1.449,12.938-11.489,15.525-12.834C356.852,7.614,346.503,4.509,346.503,4.509z"/>
	<g>
		<path fill="#C7C2BF" d="M201.918,20.706c-0.699,1.863-3.027,9.004-4.502,12.032c-1.794,3.681-4.779,6.954-7.764,8.073
			c-1.241,0.466-1.005-0.479-0.077-1.165c1.786-1.318,4.89-5.2,5.822-8.383c0.931-3.182,3.415-8.849,3.958-10.246"/>
		<path fill="#C7C2BF" d="M241.893,6.734c-13.118-8.693-32.757-6.132-39.819,8.073c0.854,0.854,1.863,0.854,2.949,0.699
			c3.881-6.133,11.965-13.287,24.917-9.858c2.639,0.698,7.219,2.717,10.634,5.045L241.893,6.734z"/>
	</g>
	<path fill="#C7C2BF" d="M366.711,5.026c6.598,0,9.392,3.881,9.392,6.675c0,2.407-1.164,3.571-2.406,3.571s-1.707-1.785-1.242-3.726
		c0.467-1.94-1.63-5.045-6.209-5.045L366.711,5.026z"/>
	<path fill="#0B0D11" d="M300.731,39.646c4.968-1.009,11.954-3.648,17.775-8.305l2.251,2.251c-4.969,3.804-9.936,6.054-13.895,6.987
		C304.612,39.879,301.818,39.725,300.731,39.646z"/>
	<path fill="#C7C2BF" d="M311.443,19.464c-0.649-6.388-0.101-12.397,1.863-14.36c0.775-0.776-0.854-0.465-1.941-0.311
		c-3.727,0.532-4.812,4.953-4.269,8.616c-2.958-0.796-5.4,0.305-6.753,1.32c-0.621,0.466,0.231,0.621,1.241,0.854
		c3.076,0.71,8.153,4.983,6.753,12.42L311.443,19.464z"/>
	<path fill="#C7C2BF" d="M205.333,38.792c1.385,6.729-4.749,9.65-9.159,6.676c1.242-1.396,2.405-3.881,1.475-7.452
		C200.598,39.181,203.237,39.258,205.333,38.792z"/>
	<path fill="none" d="M205.022,15.506"/>
	<path fill="#0B0D11" d="M352.332,13.133c5.405,5.597,6.896,13.548,4.426,23.633l0,0c-0.082,0.333-0.418,0.537-0.752,0.456
		c-0.333-0.082-0.536-0.418-0.455-0.751l0,0c2.395-9.779,1.05-17.13-4.113-22.474l0,0c-0.238-0.247-0.231-0.64,0.016-0.878
		C351.699,12.88,352.093,12.887,352.332,13.133L352.332,13.133z"/>
	<g>
		<path fill="none" d="M359.586,15.661c-1.552,0.466-4.19,0.311-6.287-1.164"/>
		<path fill="none" d="M359.276,17.524c-1.708,0.077-2.794,0.233-4.425-0.932"/>
		<path fill="none" d="M359.432,19.231c-1.009,0-2.872,0.078-3.648-0.699"/>
		<path fill="none" d="M363.545,26.063c-1.629,0.155-4.347-0.234-5.977-2.795"/>
		<path fill="none" d="M361.992,28.314c-0.854-0.079-1.474-0.233-1.862-0.544"/>
		<path fill="none" d="M358.889,26.838c-0.699-0.543-0.854-1.164-1.32-2.096"/>
		<path fill="none" d="M359.354,33.591c-1.009-1.087-1.319-2.406-1.707-4.192"/>
		<path fill="none" d="M359.586,36.774c-1.008-1.165-1.939-2.251-2.172-4.114"/>
		<path fill="none" d="M359.51,38.715c-1.242-1.32-2.096-2.019-2.406-4.036"/>
		<path fill="none" d="M359.819,41.121c-1.862-1.087-2.329-1.63-3.026-3.959"/>
		<path fill="none" d="M361.992,44.691c-2.482-1.319-3.725-1.707-4.967-4.657"/>
		<path fill="none" d="M354.774,27.847c0.465-0.698,0.776-1.319,1.009-1.784"/>
		<path fill="none" d="M353.222,26.838c1.475-1.009,2.28-3.114,1.475-5.977"/>
		<path fill="none" d="M352.135,25.286c0.931-1.086,2.794-2.872,2.252-5.899"/>
		<path fill="none" d="M350.815,23.889c1.786-0.932,4.812-4.424,0.621-9.47"/>
	</g>
	<path fill="#999390" d="M343.602,6.812c-9.319-3.917-25.966-3.715-32.236,12.963c0,1.552-0.155,5.201-0.389,6.521
		c5.201-15.447,16.25-21.657,28.98-17.439"/>
	<path fill="#C7C2BF" d="M318.196,31.806c-0.953-0.636-2.915-3.999-1.087-7.995c3.339-7.296,3.309-12.223-0.31-13.429
		c-0.933-0.311-0.537-0.877,0.698-1.397c1.475-0.621,4.89,0.078,6.985,3.959c1.97,3.646,1.136,7.247,0,8.383
		c-0.543,0.543-0.077,1.009,0.233,0.311s1.086-3.648,3.959-4.114c2.872-0.466,3.881,0.872,5.045,1.475s1.009,1.785,0.155,2.329
		s-1.397,1.552-1.164,2.717c0.456,2.276-0.455,4.683-2.019,4.967c-0.854,0.156-0.703,0.824-0.233,0.466
		c2.252-1.708,5.018-2.114,8.073-0.233c2.325,1.432,3.937,5.944,2.096,9.626c-0.31,0.621-0.854,0.155-1.009-0.932
		c-0.155-1.087-2.64-3.027-5.045-2.484c-4.358,0.983-10.261,3.388-12.963,0.932c-0.854-0.776-1.863-2.716-2.097-3.338
		C319.283,32.427,318.429,31.961,318.196,31.806z"/>
	<g>
		<path fill="none" d="M329.917,23.19c1.087-0.155,2.406-0.311,3.183-1.086"/>
		<path fill="none" d="M328.908,24.587c1.708-0.078,3.027,0.155,3.804-0.543"/>
		<path fill="none" d="M327.899,26.063c1.63,0,4.502,0.155,4.891-0.389"/>
		<path fill="none" d="M331.159,31.418c1.475,0.388,4.58,0.775,5.977,2.018c1.397,1.243,2.329,3.26,2.407,3.882"/>
		<path fill="none" d="M329.296,32.117c2.484,0.931,5.356,0.854,7.529,3.416"/>
		<path fill="none" d="M323.242,30.797c2.095,1.009,4.114,2.019,6.597,2.873c2.484,0.854,4.037,1.241,4.736,1.785"/>
		<path fill="none" d="M323.94,33.126c1.862,0.775,3.183,1.242,4.891,1.629c1.708,0.388,2.483,0.777,3.182,1.166"/>
		<path fill="none" d="M327.899,31.107c-0.932-0.077-2.019-0.232-2.484-0.388"/>
		<path fill="none" d="M326.502,29.478c-1.087-0.155-2.562-0.233-3.416-0.155"/>
		<path fill="none" d="M321.302,32.971c1.396,1.94,3.338,2.561,5.2,2.871s3.027,0.854,3.027,0.854"/>
		<path fill="none" d="M320.758,34.212c1.242,1.32,2.251,1.863,4.192,2.484c1.939,0.622,3.104,0.31,3.104,0.31"/>
		<path fill="none" d="M327.821,27.227c0.467,0.078,1.475,0.078,2.018,0"/>
		<path fill="none" d="M318.74,23.966c-0.932,1.863-1.94,4.502-0.544,7.84"/>
	</g>
	<path fill="none" d="M299.179,39.336"/>
	<path fill="#999390" d="M299.179,39.336c5.744-3.415,12.265-7.219,12.265-19.872c0-11.721-10.014-16.611-18.319-16.534
		c-4.734,0.044-13.04,2.717-16.922,2.717c-3.881,0-8.305-1.242-10.168-1.708c-2.924-0.731-6.443,0.136-7.918,1.242
		c-0.621,0.465-0.388,0.543,0.621,0.543s3.416-0.078,5.355,1.319c1.947,1.401,2.298,2.895,5.512,2.251
		c-1.009,0.311-1.164,1.087-1.631,1.32c-0.465,0.233-0.028,0.445,0.544,0.698c2.096,0.932,5.201,3.183,9.625,0
		c-6.287,4.968-0.805,10.911,0.389,10.712c0.931-0.155,0.466-1.165,0.466-1.165c0.621,6.598,5.395,12.63,12.108,10.712
		c1.088-0.311,0.467-0.699-0.543-1.009c-4.502-1.386-8.15-7.024-8.15-11.566c0-5.278,4.244-12.73,13.041-12.73
		c9.082,0,13.273,9.703,13.273,15.292c0,9.777-6.779,15.451-16.379,18.165C295.298,39.181,298.402,39.258,299.179,39.336z"/>
	<path fill="none" d="M330.188,44.691c1.708,2.251,5.512,4.425,11.8,3.183c6.286-1.241,11.875-6.132,13.428-9.78"/>
	<circle fill="#C7C2BF" cx="365.081" cy="5.26" r="1.757"/>
	<circle fill="#C7C2BF" cx="328.364" cy="15.505" r="2.415"/>
	<circle fill="#C7C2BF" cx="334.885" cy="16.747" r="2.854"/>
	<circle fill="#C7C2BF" cx="332.323" cy="11.469" r="2.305"/>
	<circle fill="#C7C2BF" cx="336.515" cy="23.889" r="2.415"/>
	<circle fill="#C7C2BF" cx="340.241" cy="19.231" r="2.525"/>
	<circle fill="#C7C2BF" cx="339.465" cy="13.798" r="2.635"/>
	<circle fill="#C7C2BF" cx="337.292" cy="8.519" r="2.744"/>
	<circle fill="#C7C2BF" cx="341.173" cy="9.373" r="1.427"/>
	<circle fill="#C7C2BF" cx="343.502" cy="6.501" r="1.866"/>
	<circle fill="#C7C2BF" cx="344.277" cy="11.081" r="2.415"/>
	<circle fill="#C7C2BF" cx="344.665" cy="15.894" r="2.415"/>
	<circle fill="#C7C2BF" cx="348.857" cy="12.789" r="2.086"/>
	<circle fill="#C7C2BF" cx="352.273" cy="10.693" r="2.196"/>
	<circle fill="#C7C2BF" cx="348.625" cy="8.675" r="2.415"/>
	<circle fill="#C7C2BF" cx="348.392" cy="4.793" r="1.866"/>
	<circle fill="#C7C2BF" cx="351.962" cy="4.25" r="1.098"/>
	<circle fill="#C7C2BF" cx="352.816" cy="6.734" r="2.195"/>
	<circle fill="#C7C2BF" cx="356.309" cy="8.054" r="1.976"/>
	<circle fill="#C7C2BF" cx="356.154" cy="4.172" r="1.537"/>
	<circle fill="#C7C2BF" cx="359.025" cy="5.647" r="1.976"/>
	<circle fill="#C7C2BF" cx="361.82" cy="6.579" r="1.647"/>
	<circle fill="#C7C2BF" cx="361.82" cy="4.017" r="1.427"/>
	<path fill="#999390" d="M210.767,11.081c0,4.01-2.846,7.607-6.598,7.607c-4.914,0-6.365-4.347-5.666-7.762
		c0.346-1.698,2.328-1.184,2.328,0.078c0,2.484,1.163,4.657,3.105,4.657c2.38,0,3.881-2.277,3.881-4.812
		c0-2.484-1.941-5.511-5.823-5.511c-5.433,0-10.866,6.598-10.866,13.506c0,8.693,4.45,17.078,12.109,17.078
		c4.968,0,6.986-4.658,7.374-7.142c0.197-1.265,1.397,0.078,1.552,1.009c1.44,8.637-8.373,10.77-14.515,8.228
		c1.271,2.967-0.133,8.626-5.666,9.548c-0.933,0.155-1.709-0.155-1.165-0.543c2.247-1.604,4.662-5.045,1.708-11.798
		c-1.63-3.727-4.425-9.47-4.425-14.594c0-9.961,6.004-18.086,13.43-18.086c3.958,0,7.141,2.173,8.537,4.191
		c1.854,2.678,4.176,4.257,6.055,3.881c0.777-0.155,0.469,0.08,0.156,0.466C215.269,12.323,212.743,13.717,210.767,11.081z"/>
	<path fill="#999390" d="M230.949,14.003c0,0-0.854-2.562-3.805-3.027c-1.611-0.254-4.113-1.785-4.502-2.483
		c-0.388-0.699-1.241-1.165-1.396-0.078c-0.156,1.086-0.389,6.132,3.259,8.849C224.505,17.263,231.409,21.408,230.949,14.003z"/>
	<path fill="#999390" d="M225.256,34.677c-0.568,0.775-3.726,0.518-4.528,0.465c-0.801-0.051-2.51,0.104-3.26,0.259
		c-0.75,0.156-0.439-0.129-0.155-0.646c1.055-1.918,1.559-3.386,6.571-5.615l8.391-0.837L225.256,34.677z"/>
	<path fill="#999390" d="M241.194,36.824c1.242,2.483,1.242,6.132,0.698,7.529s-0.544,2.018-0.387,2.639
		c0.155,0.621-0.238,0.943-1.01,0.621c-1.863-0.776-3.804-0.854-4.27-3.803c-0.465-2.95,1.242-5.666-0.698-8.85L241.194,36.824z"/>
	<path fill="#999390" d="M253.691,23.55c1.333-0.342,5.744,3.648,6.365,4.115c0.621,0.466,1.087,0.854,1.63,0.931
		c0.544,0.078,0.389,0.699-0.388,1.009c-0.776,0.311-5.899,1.941-9.781-0.776C251.518,28.829,245.361,25.694,253.691,23.55z"/>
	<path fill="#999390" d="M250.787,3.917c0,0,1.787,5.617-1.021,6.639s-2.809,1.021-2.809,1.021s-0.128-2.809-1.277-4.468
		C245.68,7.109,248.361,8.13,250.787,3.917z"/>
	<path fill="none" d="M222.876,10.898c1.552,1.086,3.027,1.164,4.347,2.562"/>
	<path fill="none" d="M239.72,44.819c-1.087-1.863-1.242-3.57-1.475-5.278c-0.233-1.708-0.621-2.639-1.165-3.493"/>
	<g>
		<path fill="#F9F9F9" d="M263.171,11.45c0,0-4.084,2.372-7.021,0.483c-2.938-1.888-13.022-3.803-15.448,10.241
			c0,0,4.528,7.07,15.193,3.703c2.425-0.766,6.128-4.468,6.128-4.468s0.51-3.064-5.107-3.831
			C256.915,17.578,262.405,17.705,263.171,11.45z"/>
		<path fill="#F9F9F9" d="M240.701,22.174c0,0,22.074,4.216,15.32,9.704c-10.214,8.298,0.766,15.958-12.257,11.618
			c0,0-7.532-4.086-8.043-11.363C235.211,24.855,239.169,22.812,240.701,22.174z"/>
		<path fill="#F9F9F9" d="M240.701,22.174c0,0-0.894,12.384-3.958,18.002c-3.064,5.617-7.532,5.234-6.638,9.447
			c0,0-4.725-2.809-4.598-6.639c0,0-1.021,1.531-5.489,1.787c0,0-1.404-2.681,1.404-4.852c0,0-3.446-0.638-3.83-2.426
			c0,0,2.809,1.149,11.362-7.661c0,0-11.49,4.213-14.044-1.787c-2.554-6-4.213-5.873-6.256-5.235c0,0,2.554-4.085,6.384-2.553
			c0,0-3.447-2.809-2.17-6.767c0,0,1.277,1.915,6.767-0.128C225.125,11.322,237.893,19.493,240.701,22.174z"/>
		<path fill="#F9F9F9" d="M239.169,22.302c-0.174,0.364-12.719,1.407-12.001-11.873c0.255-4.724,3.83-3.958,8.043-7.022
			C235.211,3.406,244.787,10.556,239.169,22.302z"/>
		<path fill="#F9F9F9" d="M239.169,22.302c0,0-11.746-10.98,4.979-17.491C244.148,4.811,252.829,13.748,239.169,22.302z"/>
	</g>
	<g>
		<path fill="none" d="M219.305,21.299c3.338-0.854,6.754-0.31,10.091,2.95"/>
		<path fill="none" d="M218.995,23.628c1.629-2.096,4.191-3.027,7.762-1.475"/>
		<path fill="none" d="M220.857,24.249c1.785-2.018,4.969-2.406,7.297-1.009"/>
		<path fill="none" d="M222.099,25.336c2.019-1.708,4.425-2.484,7.064-1.165"/>
		<path fill="none" d="M223.729,26.579c2.174-1.32,3.648-3.261,6.753-1.01"/>
		<path fill="none" d="M223.574,28.441c0.854-0.466,2.329-1.319,2.717-1.63"/>
		<path fill="none" d="M227.378,26.5c0.776-0.232,2.018-0.543,3.726,0.155"/>
		<path fill="none" d="M225.593,29.062c1.863-1.087,3.647-1.553,5.899-1.243"/>
		<path fill="none" d="M227.532,30.071c1.475-1.243,2.33-1.553,4.658-1.243"/>
		<path fill="none" d="M227.61,33.952c1.087-2.406,3.261-4.657,5.745-4.424"/>
		<path fill="none" d="M228.854,32.865c1.879-2.256,4.169-3.444,6.209-1.085"/>
		<path fill="none" d="M231.739,34.72c-0.078,0.699,0.077,1.708,0.621,2.561"/>
		<path fill="none" d="M230.342,34.124c-0.62,1.397-0.465,2.716,0.078,3.881"/>
		<path fill="none" d="M228.726,33.353c-0.544,1.164-0.31,2.872-0.078,3.88"/>
	</g>
	<g>
		<path fill="none" d="M230.25,5.62c1.396-0.156,2.406,1.164,2.795,2.173c0.387,1.01,1.319,2.717,2.871,2.639"/>
		<path fill="none" d="M234.537,10.462c-0.777,1.319-1.553,2.561-1.475,3.881"/>
		<path fill="none" d="M231.673,12.456c-0.154-1.708,1.01-2.872,1.863-3.493"/>
		<path fill="none" d="M230.12,10.515c0.233-1.553,0.622-3.105,2.33-3.338"/>
	</g>
	<path fill="none" d="M242.817,12.65c0.621,1.242,0.543,2.639,0.155,4.735"/>
	<g>
		<path fill="none" d="M253.071,17.03c-1.32,1.63-3.96,3.648-7.141,3.493"/>
		<path fill="none" d="M253.924,19.281c-1.939,1.165-3.104,1.94-6.597,1.242"/>
		<path fill="none" d="M250.896,16.487c-1.707,2.329-3.337,3.726-5.588,3.337"/>
		<path fill="none" d="M248.802,16.099c-0.932,2.173-2.329,3.726-3.804,3.416"/>
		<path fill="none" d="M246.395,16.41c-0.854,1.552-0.854,2.096-1.785,2.251"/>
		<path fill="none" d="M253.924,21.377c-0.388,0.31-1.085,0.621-1.552,0.698"/>
	</g>
	<g>
		<path fill="none" d="M250.25,26.371c1.242,1.76,3.52,4.036,3.106,7.348"/>
		<path fill="none" d="M249.008,27.924c1.242,1.655,2.51,2.381,2.381,4.553c-0.104,1.76-0.518,3.416-1.139,4.657"/>
		<path fill="none" d="M245.387,32.788c0.518,3,0.932,4.036,0.104,6.106"/>
		<path fill="none" d="M243.627,35.789c0,1.242-0.207,2.277-0.518,3.106"/>
		<path fill="none" d="M239.28,31.028c-0.414,1.76,0.413,4.45,0.931,5.692"/>
		<path fill="none" d="M241.557,31.339c-0.208,0.932-0.104,3.622,0.104,4.761"/>
		<path fill="none" d="M247.663,28.958c0.932,1.345,1.759,5.072,0.414,8.072"/>
	</g>
	<path fill="#0B0D11" d="M243.135,21.843c1.165,0.888,1.785,3.648,0,3.26c-3.529-0.768-5.552,1.439-4.58,4.114
		c0.312,0.854,0.835,2.902-1.551,2.329c-3.882-0.932-5.124-6.598-2.33-9.159C237.469,19.825,240.186,19.592,243.135,21.843z"/>
	<g>
		<circle fill="#999390" cx="244.658" cy="20.003" r="2.195"/>
		<circle fill="#999390" cx="238.786" cy="17.705" r="2.196"/>
		<circle fill="#999390" cx="232.658" cy="20.259" r="2.635"/>
		<circle fill="#999390" cx="229.977" cy="26.515" r="2.635"/>
		<circle fill="#999390" cx="247.56" cy="25.905" r="2.342"/>
		<circle fill="#999390" cx="242.799" cy="33.771" r="2.196"/>
		<circle fill="#999390" cx="232.575" cy="31.974" r="2.196"/>
		<circle fill="#999390" cx="237.427" cy="34.399" r="2.196"/>
	</g>
	<path fill="#63605D" d="M255.479,34.877c-4.657-2.276-10.092-5.866-10.713-7.315c-0.621-1.45-2.587-3.83-5.279-1.967
		c-2.69,1.863-0.724,5.072,0.932,5.279c1.656,0.207,3.312,0.725,5.279,2.38c1.966,1.656,7.424,5.008,9.08,5.422
		C254.862,37.388,254.682,35.962,255.479,34.877z"/>
	<path fill="#63605D" d="M294.521,20.706c-2.484,0-4.347,1.863-4.347,4.192c0,2.329,2.328,3.019,3.492,3.027
		c3.468,0.026,2.718-5.175-0.231-4.191c-0.912,0.304-0.337-0.233,0.129-0.336c2.397-0.533,5.02,2.275,5.02,5.123
		c0,3.001-1.501,8.176-10.351,8.176c-8.848,0-16.248-5.744-24.838-5.744c-2.584,0-8.643,1.414-8.643,6.831
		c0,5.02,6.391,10.323,16.637,10.323c18.561,0,35.802-10.271,45.332-1.474c-4.765-5.461-12.27-8.676-24.348-6.935
		C306.453,33.143,301.417,20.706,294.521,20.706z"/>
	<g>
		<path fill="#0B0D11" d="M296.479,42.999c-4.768,0.644-13.71,2.008-17.761,2.891c-9.049,1.97-17.945,0.224-21.633-4.246
			c-1.76-2.133-2.103-4.629-0.99-7.218l0,0c0.111-0.259,0.412-0.379,0.671-0.268c0.259,0.111,0.379,0.412,0.268,0.671l0,0
			c-0.95,2.214-0.66,4.346,0.84,6.166c3.4,4.12,12.075,5.759,20.627,3.896c4.078-0.888,13.058-2.258,17.842-2.904l0,0
			c0.28-0.038,0.537,0.159,0.574,0.438C296.954,42.703,296.758,42.96,296.479,42.999L296.479,42.999z"/>
		<path fill="#0B0D11" d="M277.564,44.857c-5.52,1.038-15.491,0.613-19.363-3.596c-1.517-1.647-1.954-3.683-1.302-6.046l0,0
			c0.075-0.272,0.356-0.432,0.628-0.356c0.272,0.075,0.432,0.356,0.357,0.627l0,0c-0.553,2.003-0.194,3.713,1.068,5.083
			c3.452,3.755,12.918,4.319,18.423,3.284l0,0c0.277-0.053,0.544,0.131,0.597,0.407C278.024,44.538,277.842,44.805,277.564,44.857
			L277.564,44.857z"/>
		<path fill="#0B0D11" d="M292.392,40.09c-4.717,1.154-11.563,0.262-12.889-0.461l0,0c-0.247-0.135-0.339-0.445-0.204-0.693
			s0.445-0.339,0.693-0.204l0,0c0.989,0.541,7.605,1.479,12.157,0.367l0,0c0.273-0.067,0.55,0.101,0.617,0.374
			C292.833,39.747,292.666,40.023,292.392,40.09L292.392,40.09z"/>
		<path fill="#0B0D11" d="M285.21,40.431c-6.699,4.555-10.69,1.543-14.549-1.371l-0.535-0.402c-0.225-0.169-0.27-0.488-0.101-0.714
			c0.168-0.225,0.488-0.271,0.713-0.103l0.603,0.448c1.687,1.249,2.705,2.003,1.91,3.328c-0.311,0.519-0.884,0.814-1.703,0.879
			c-2.39,0.189-6.563-1.698-7.82-3.193c-1.348-1.605-2.155-1.811-2.439-1.825c-0.168-0.008-0.225,0.042-0.225,0.042
			c0.003-0.002,0.013-0.017,0.021-0.04c-0.06,0.175-0.029,0.262,0.01,0.329c0.193,0.33,1.034,0.838,3.947,1.389l0,0
			c0.277,0.052,0.46,0.319,0.407,0.597s-0.319,0.459-0.597,0.406l0,0c-2.827-0.534-4.17-1.077-4.638-1.874
			c-0.208-0.351-0.24-0.745-0.099-1.169c0.112-0.338,0.437-0.597,0.847-0.675c0.68-0.129,1.847,0.141,3.547,2.165
			c1.077,1.281,4.926,2.993,6.957,2.832c0.324-0.026,0.745-0.114,0.908-0.386c0.282-0.472,0.099-0.694-1.642-1.983l-0.607-0.451
			c0.226,0.168,0.546,0.122,0.714-0.104c0.169-0.226,0.124-0.544-0.102-0.713l0.537,0.405c3.899,2.943,7.266,5.484,13.359,1.341l0,0
			c0.233-0.159,0.551-0.099,0.71,0.135C285.503,39.954,285.442,40.272,285.21,40.431L285.21,40.431z"/>
	</g>
	<path fill="#63605D" d="M201.53,18.222c-0.389,1.009-0.777,2.639-0.699,3.804c-0.388,0.543-2.019,1.242-2.872,1.319
		c-2.485,0.226-4.424-1.778-4.658-3.648c-0.077-0.621-0.154-1.32,0.621-0.699c2.709,2.167,4.859,0.931,6.609-1.545L201.53,18.222"/>
	<path fill="#63605D" d="M203.78,18.766c-0.698,1.785,0,4.812,0.932,5.278c0.932,0.465,0.389,0.776-0.388,0.854
		s-4.657-0.699-2.794-6.676C202.15,18.377,203.005,18.766,203.78,18.766z"/>
</g>
</svg>
